<svg width="198" height="56" viewBox="0 0 198 56" fill="none" xmlns="http://www.w3.org/2000/svg">
<g clip-path="url(#clip0_498_727)">
<path fill-rule="evenodd" clip-rule="evenodd" d="M17.5551 4.45941L15.4961 8.61349L19.881 40.2646L26.8487 43.5478L30.104 36.9813L17.5551 4.45941Z" fill="#EAEFEB"/>
<path fill-rule="evenodd" clip-rule="evenodd" d="M19.8816 40.2645L15.4967 8.61346L3.61523 32.612L19.8816 40.2645Z" fill="#CED9C5"/>
<path fill-rule="evenodd" clip-rule="evenodd" d="M17.5557 4.45941L40.7948 15.3901L30.1046 36.9814L17.5557 4.45941Z" fill="#CED9C5"/>
<path d="M42.3708 10.4301L20.7387 0.255138C20.4287 0.10871 20.092 0.0233679 19.748 0.00400274C19.404 -0.0153624 19.0595 0.0316303 18.7342 0.142288C18.4089 0.252945 18.1092 0.425091 17.8523 0.648861C17.5953 0.87263 17.3862 1.14362 17.2369 1.44631L0.261999 35.725C0.111777 36.0272 0.0242238 36.3554 0.00435691 36.6907C-0.0155099 37.026 0.0327003 37.3618 0.146225 37.6789C0.259749 37.996 0.436356 38.2881 0.665923 38.5386C0.89549 38.789 1.1735 38.9928 1.48403 39.1383L23.1058 49.3183C23.7323 49.6127 24.453 49.6526 25.1096 49.4292C25.7662 49.2059 26.305 48.7375 26.6076 48.1272L43.5928 13.8485C43.7431 13.5459 43.8308 13.2173 43.8507 12.8817C43.8706 12.546 43.8225 12.2098 43.709 11.8923C43.5955 11.5748 43.4188 11.2822 43.1892 11.0313C42.9596 10.7804 42.6815 10.5761 42.3708 10.4301ZM26.8489 43.5427L3.59435 32.6119L17.5553 4.45927L40.7944 15.39L26.8489 43.5427Z" fill="#365528"/>
<path d="M22.2999 19.7794L25.2985 21.2759L18.7982 36.631L13.833 34.3988L22.2999 19.7794Z" fill="#365528"/>
<path d="M25.7147 19.284C26.9341 19.284 27.9226 18.3204 27.9226 17.1318C27.9226 15.9433 26.9341 14.9797 25.7147 14.9797C24.4953 14.9797 23.5068 15.9433 23.5068 17.1318C23.5068 18.3204 24.4953 19.284 25.7147 19.284Z" fill="#365528"/>
<path d="M29.4724 23.1728C29.4363 23.0569 29.4444 22.9322 29.4954 22.8218C29.5464 22.7113 29.6367 22.6226 29.7497 22.5722C31.0348 22.0423 32.071 21.0643 32.6559 19.8295C33.2759 18.5291 33.4155 17.0597 33.0512 15.6704C33.0222 15.5511 33.0391 15.4256 33.0987 15.3177C33.1584 15.2097 33.2566 15.1269 33.3747 15.0848C33.4398 15.0665 33.5079 15.0609 33.5752 15.0684C33.6425 15.0759 33.7076 15.0962 33.7668 15.1283C33.826 15.1604 33.878 15.2036 33.92 15.2554C33.962 15.3072 33.993 15.3666 34.0114 15.4302C34.2017 16.1673 34.2728 16.9289 34.2219 17.6874C34.1681 18.5757 33.9398 19.4456 33.5493 20.2499C33.1694 21.0397 32.6338 21.7488 31.973 22.3369C31.4287 22.8193 30.8034 23.207 30.1245 23.4831C30.0605 23.5069 29.9923 23.5181 29.9238 23.5158C29.8553 23.5136 29.788 23.498 29.7258 23.4701C29.6636 23.4421 29.6078 23.4022 29.5616 23.3529C29.5155 23.3036 29.4799 23.2457 29.457 23.1828L29.4724 23.1728Z" fill="#365528"/>
<path d="M31.6808 15.6404C31.7498 15.6177 31.8231 15.6096 31.8956 15.6166C31.9682 15.6236 32.0384 15.6456 32.1015 15.6811C32.1646 15.7166 32.2193 15.7648 32.2619 15.8225C32.3044 15.8802 32.3339 15.9461 32.3483 16.0158C32.4652 16.5296 32.5084 17.0569 32.4766 17.5823C32.4293 18.2468 32.2551 18.8969 31.9632 19.4992C31.6826 20.0969 31.2809 20.6332 30.7822 21.0757C30.4103 21.4064 29.9876 21.6783 29.5294 21.8815C29.4657 21.9064 29.3976 21.9186 29.3291 21.9175C29.2605 21.9163 29.1929 21.9018 29.1302 21.8747C29.0675 21.8476 29.011 21.8086 28.9641 21.7599C28.9171 21.7113 28.8806 21.6539 28.8567 21.5912C28.8226 21.4779 28.8307 21.3565 28.8795 21.2484C28.9284 21.1403 29.0149 21.0526 29.1237 21.0007C29.984 20.6145 30.673 19.9394 31.0646 19.0988C31.4834 18.204 31.5881 17.1996 31.3624 16.241C31.3289 16.1202 31.3429 15.9916 31.4018 15.8804C31.4608 15.7692 31.5603 15.6836 31.6808 15.6404Z" fill="#365528"/>
<path d="M29.9353 16.2159C30.0038 16.1966 30.0757 16.1914 30.1464 16.2006C30.2171 16.2098 30.2851 16.2333 30.3459 16.2696C30.4068 16.3059 30.4593 16.3541 30.4999 16.4112C30.5406 16.4683 30.5687 16.5331 30.5822 16.6013C30.7078 17.3177 30.6131 18.0543 30.3101 18.7184C30.125 19.115 29.8615 19.4721 29.5348 19.7694C29.3468 19.9388 29.1381 20.0851 28.9135 20.2049C28.8485 20.2376 28.7772 20.2564 28.7041 20.26C28.6311 20.2637 28.5581 20.2521 28.4901 20.226C28.422 20.2 28.3605 20.16 28.3095 20.1089C28.2586 20.0578 28.2194 19.9967 28.1947 19.9296C28.1615 19.8223 28.1663 19.7072 28.2082 19.6029C28.25 19.4985 28.3267 19.4109 28.4257 19.354C28.8672 19.0925 29.2155 18.7048 29.4231 18.2437C29.6307 17.7825 29.6876 17.2703 29.5861 16.7765C29.5654 16.6577 29.5893 16.5357 29.6534 16.4327C29.7175 16.3297 29.8176 16.2528 29.9353 16.2159Z" fill="#365528"/>
<path d="M18.6231 18.1779C18.734 18.1267 18.8224 18.0385 18.8723 17.9292C18.9223 17.82 18.9304 17.6969 18.8953 17.5823C18.4537 16.2916 18.5233 14.8866 19.0904 13.6434C19.6799 12.3292 20.7175 11.2541 22.0274 10.6004C22.1378 10.5418 22.2223 10.4458 22.2649 10.3304C22.3075 10.2151 22.3052 10.0886 22.2584 9.97483C22.2303 9.91366 22.1898 9.85862 22.1394 9.81298C22.089 9.76735 22.0297 9.73204 21.9651 9.70917C21.9004 9.6863 21.8317 9.67632 21.763 9.67982C21.6944 9.68333 21.6271 9.70026 21.5652 9.72959C20.8731 10.0774 20.2408 10.5283 19.6911 11.0659C19.0411 11.694 18.5185 12.436 18.1507 13.2531C17.7917 14.054 17.5997 14.9166 17.5859 15.7905C17.5896 16.5092 17.7198 17.2219 17.971 17.8976C17.9954 17.9592 18.0321 18.0155 18.0789 18.0632C18.1257 18.111 18.1818 18.1492 18.2438 18.1757C18.3059 18.2022 18.3727 18.2165 18.4405 18.2178C18.5082 18.219 18.5755 18.2071 18.6385 18.1829L18.6231 18.1779Z" fill="#365528"/>
<path d="M22.9573 11.5864C22.9277 11.5265 22.8862 11.473 22.8352 11.4289C22.7842 11.3848 22.7247 11.3511 22.6602 11.3297C22.5957 11.3082 22.5274 11.2995 22.4594 11.3041C22.3914 11.3086 22.325 11.3264 22.2641 11.3562C21.7894 11.6064 21.3552 11.9235 20.9753 12.2971C20.4926 12.7647 20.1042 13.3164 19.8303 13.9237C19.5604 14.5239 19.4155 15.1703 19.4041 15.8256C19.3948 16.3168 19.4641 16.8065 19.6095 17.277C19.6324 17.3405 19.6681 17.3989 19.7146 17.4487C19.7612 17.4985 19.8175 17.5386 19.8803 17.5666C19.9431 17.5946 20.0111 17.61 20.0801 17.6119C20.1492 17.6137 20.2179 17.6019 20.2822 17.5773C20.3827 17.5249 20.4626 17.4414 20.509 17.3399C20.5555 17.2384 20.566 17.1247 20.5389 17.0167C20.2672 16.1338 20.331 15.185 20.7186 14.3441C21.1291 13.4467 21.8333 12.7074 22.7211 12.242C22.8399 12.1838 22.9309 12.083 22.9749 11.9607C23.019 11.8384 23.0127 11.7042 22.9573 11.5864Z" fill="#365528"/>
<path d="M23.6709 13.243C23.6417 13.1785 23.5989 13.1207 23.5452 13.0734C23.4915 13.0261 23.4281 12.9904 23.3593 12.9687C23.2904 12.947 23.2176 12.9396 23.1457 12.9473C23.0737 12.9549 23.0042 12.9772 22.9418 13.0128C22.3061 13.3917 21.8017 13.9479 21.4938 14.6094C21.3098 15.0064 21.2086 15.4351 21.196 15.8706C21.1906 16.1213 21.2165 16.3717 21.273 16.6163C21.2912 16.6853 21.3242 16.7497 21.3699 16.8052C21.4156 16.8607 21.4729 16.9061 21.538 16.9383C21.6032 16.9705 21.6746 16.9888 21.7475 16.992C21.8205 16.9951 21.8933 16.9831 21.9611 16.9567C22.0662 16.9103 22.1523 16.8308 22.2054 16.7309C22.2585 16.631 22.2755 16.5166 22.2537 16.4061C22.1632 15.9104 22.2314 15.3994 22.4491 14.9428C22.6668 14.4861 23.0235 14.1058 23.4706 13.8536C23.572 13.7908 23.6476 13.6953 23.6842 13.5837C23.7208 13.4721 23.7161 13.3516 23.6709 13.243Z" fill="#365528"/>
<path d="M49.8467 51.1403C50.2841 51.0664 50.7275 51.0312 51.1714 51.0351C51.668 50.9933 52.1659 51.0998 52.5988 51.3404C52.7595 51.4355 52.8917 51.5703 52.9818 51.7311C53.072 51.892 53.117 52.0731 53.1123 52.2563C53.106 52.4937 53.0218 52.7229 52.8721 52.9103C52.7224 53.0976 52.515 53.2333 52.2805 53.2974C52.5688 53.3489 52.8294 53.4973 53.017 53.7168C53.2046 53.9362 53.3074 54.2129 53.3074 54.4985C53.31 54.6891 53.2689 54.8779 53.1872 55.0511C53.1055 55.2242 52.9852 55.3774 52.835 55.4995C52.2922 55.8566 51.6379 56.0161 50.9866 55.95C50.6124 55.9519 50.2385 55.9302 49.8672 55.8849L49.8467 51.1403ZM50.7504 53.0521H51.2125C51.844 53.0521 52.1932 52.7618 52.1932 52.3564C52.1932 51.951 51.8389 51.6908 51.269 51.6908C51.097 51.6859 50.925 51.6976 50.7555 51.7258L50.7504 53.0521ZM50.7504 55.2793C50.9093 55.2918 51.069 55.2918 51.2279 55.2793C51.8132 55.2793 52.3318 55.0641 52.3318 54.4635C52.3318 53.8629 51.8184 53.6727 51.2022 53.6727H50.7504V55.2793Z" fill="#365528"/>
<path d="M62.1906 53.4475C62.1906 55.0691 61.1636 56 59.8081 56C58.4526 56 57.5078 54.954 57.5078 53.5526C57.5078 52.1513 58.468 51.0151 59.8749 51.0151C61.2817 51.0151 62.1906 52.0512 62.1906 53.4475ZM58.4731 53.5176C58.4731 54.5186 58.9866 55.2893 59.8543 55.2893C60.7221 55.2893 61.2304 54.4936 61.2304 53.4826C61.2304 52.5667 60.7631 51.7008 59.8595 51.7008C58.9558 51.7008 58.4731 52.5216 58.4731 53.5176Z" fill="#365528"/>
<path d="M71.0634 53.4475C71.0634 55.0691 70.0364 56 68.6809 56C67.3254 56 66.3857 54.954 66.3857 53.5326C66.3857 52.1112 67.3511 50.9951 68.7579 50.9951C70.1648 50.9951 71.0634 52.0512 71.0634 53.4475ZM67.3459 53.5176C67.3459 54.5186 67.8594 55.2893 68.7271 55.2893C69.5949 55.2893 70.1032 54.4936 70.1032 53.4826C70.1032 52.5667 69.6359 51.7008 68.7323 51.7008C67.8286 51.7008 67.3459 52.5216 67.3459 53.5176Z" fill="#365528"/>
<path d="M75.5146 51.0502H76.4183V53.2824C76.5364 53.0972 76.6648 52.922 76.7829 52.7819L78.0871 51.0702H79.2064L77.5325 53.1322L79.3605 55.92H78.2976L76.8856 53.7028L76.4389 54.2033V55.9049H75.5352L75.5146 51.0502Z" fill="#365528"/>
<path d="M83.4374 55.4294C83.4331 55.3551 83.4447 55.2807 83.4713 55.211C83.4979 55.1412 83.539 55.0775 83.592 55.024C83.645 54.9704 83.7088 54.9281 83.7794 54.8997C83.85 54.8713 83.9258 54.8574 84.0022 54.8589C84.1188 54.8549 84.2339 54.8849 84.3328 54.9451C84.4317 55.0054 84.5099 55.093 84.5574 55.1969C84.6049 55.3007 84.6194 55.416 84.5992 55.528C84.579 55.6399 84.5249 55.7435 84.444 55.8253C84.363 55.9071 84.2588 55.9634 84.1447 55.9871C84.0306 56.0108 83.9119 56.0007 83.8037 55.9582C83.6956 55.9157 83.6029 55.8426 83.5376 55.7484C83.4724 55.6542 83.4375 55.5431 83.4374 55.4294Z" fill="#365528"/>
<path d="M95.0259 51.0502H95.9347V54.1983C95.9347 55.5346 95.2724 55.98 94.2865 55.98C94.027 55.9803 93.7689 55.9415 93.5215 55.8649L93.6344 55.1492C93.8146 55.2092 94.0037 55.2397 94.1941 55.2393C94.7076 55.2393 95.0259 55.0091 95.0259 54.1682V51.0502Z" fill="#365528"/>
<path d="M105.023 53.4475C105.023 55.0691 103.996 56 102.641 56C101.285 56 100.346 54.954 100.346 53.5326C100.346 52.1112 101.311 50.9951 102.713 50.9951C104.114 50.9951 105.023 52.0512 105.023 53.4475ZM101.306 53.5176C101.306 54.5186 101.819 55.2893 102.687 55.2893C103.555 55.2893 104.063 54.4936 104.063 53.4826C104.063 52.5667 103.596 51.7008 102.692 51.7008C101.789 51.7008 101.306 52.5216 101.306 53.5176Z" fill="#365528"/>
<path d="M110.394 51.0502V53.8779C110.394 54.8239 110.8 55.2693 111.421 55.2693C112.042 55.2693 112.448 54.8289 112.448 53.8779V51.0502H113.357V53.8229C113.357 55.3244 112.566 55.98 111.364 55.98C110.163 55.98 109.47 55.3544 109.47 53.8279V51.0502H110.394Z" fill="#365528"/>
<path d="M118.065 51.1402C118.522 51.0658 118.984 51.0306 119.447 51.0351C119.991 50.9833 120.537 51.1217 120.987 51.4255C121.128 51.5457 121.24 51.6954 121.314 51.8635C121.388 52.0316 121.422 52.2138 121.413 52.3965C121.411 52.6657 121.323 52.9277 121.161 53.1458C120.999 53.3638 120.771 53.5271 120.509 53.6127C120.691 53.7041 120.847 53.8378 120.964 54.0018C121.08 54.1659 121.153 54.3554 121.177 54.5536C121.277 55.0123 121.409 55.4638 121.572 55.9049H120.664C120.516 55.5353 120.402 55.1533 120.325 54.7638C120.186 54.1282 119.95 53.923 119.431 53.9129H118.974V55.9149H118.071L118.065 51.1402ZM118.969 53.2773H119.508C120.124 53.2773 120.504 52.962 120.504 52.4815C120.504 52.0011 120.124 51.7058 119.534 51.7008C119.345 51.6968 119.155 51.7119 118.969 51.7458V53.2773Z" fill="#365528"/>
<path d="M125.941 55.92V51.0502H126.968L128.257 53.1322C128.574 53.6567 128.857 54.2 129.104 54.7588C129.043 54.1132 129.022 53.4926 129.022 52.7568V51.0502H129.905V55.8999H128.961L127.667 53.7678C127.337 53.2276 127.038 52.6695 126.773 52.0962H126.748C126.783 52.7268 126.799 53.3624 126.799 54.1632V55.8949L125.941 55.92Z" fill="#365528"/>
<path d="M137.392 53.7678H135.517V55.1942H137.607V55.92H134.604V51.0502H137.499V51.7809H135.512V53.0521H137.386L137.392 53.7678Z" fill="#365528"/>
<path d="M143.255 55.92V53.918L141.663 51.0502H142.69L143.286 52.2964C143.455 52.6517 143.583 52.927 143.717 53.2573C143.84 52.947 143.984 52.6467 144.148 52.2964L144.795 51.0502H145.822L144.169 53.8579V55.8999L143.255 55.92Z" fill="#365528"/>
<path d="M149.083 55.4295C149.087 55.3213 149.124 55.2167 149.188 55.1288C149.253 55.0408 149.343 54.9734 149.447 54.9349C149.55 54.8965 149.664 54.8887 149.772 54.9125C149.88 54.9364 149.979 54.9908 150.056 55.0691C150.132 55.1473 150.184 55.2458 150.203 55.3524C150.223 55.4589 150.21 55.5687 150.166 55.668C150.122 55.7674 150.049 55.8518 149.955 55.9109C149.862 55.97 149.754 56.001 149.643 56C149.567 56.0008 149.491 55.9864 149.421 55.9577C149.351 55.929 149.288 55.8866 149.236 55.8331C149.183 55.7796 149.143 55.7162 149.116 55.6468C149.09 55.5773 149.079 55.5034 149.083 55.4295Z" fill="#365528"/>
<path d="M159.296 51.0502H160.2V55.1592H162.253V55.8999H159.296V51.0502Z" fill="#365528"/>
<path d="M167.521 51.0502V55.8999H166.612V51.0502H167.521Z" fill="#365528"/>
<path d="M173.375 55.92L171.763 51.0502H172.759L173.437 53.2573C173.627 53.8679 173.791 54.4335 173.919 55.0241C174.048 54.4485 174.227 53.8579 174.433 53.2673L175.162 51.0502H176.117L174.397 55.8999L173.375 55.92Z" fill="#365528"/>
<path d="M183.131 53.7678H181.252V55.1942H183.346V55.92H180.343V51.0502H183.239V51.7809H181.252V53.0521H183.126L183.131 53.7678Z" fill="#365528"/>
<path d="M187.633 55.4295C187.626 55.3531 187.635 55.276 187.66 55.2032C187.685 55.1304 187.725 55.0635 187.778 55.0067C187.831 54.95 187.895 54.9046 187.967 54.8736C188.039 54.8425 188.117 54.8265 188.196 54.8265C188.274 54.8265 188.352 54.8425 188.424 54.8736C188.496 54.9046 188.561 54.95 188.614 55.0067C188.667 55.0635 188.707 55.1304 188.732 55.2032C188.756 55.276 188.765 55.3531 188.758 55.4295C188.765 55.5058 188.756 55.5829 188.732 55.6557C188.707 55.7285 188.667 55.7954 188.614 55.8522C188.561 55.9089 188.496 55.9543 188.424 55.9853C188.352 56.0164 188.274 56.0324 188.196 56.0324C188.117 56.0324 188.039 56.0164 187.967 55.9853C187.895 55.9543 187.831 55.9089 187.778 55.8522C187.725 55.7954 187.685 55.7285 187.66 55.6557C187.635 55.5829 187.626 55.5058 187.633 55.4295Z" fill="#365528"/>
<path d="M51.2789 22.4921H56.0644C56.1001 22.4928 56.135 22.502 56.1663 22.5188C56.1976 22.5356 56.2242 22.5596 56.2439 22.5886C56.2636 22.6176 56.2757 22.6509 56.2793 22.6855C56.283 22.7201 56.2779 22.7551 56.2646 22.7874L53.4149 29.2938C53.4003 29.326 53.3942 29.3613 53.3972 29.3965C53.4002 29.4316 53.4122 29.4654 53.4322 29.4948C53.4521 29.5242 53.4793 29.5483 53.5113 29.5647C53.5433 29.5812 53.579 29.5896 53.6152 29.5891H57.8717C57.9146 29.5892 57.9565 29.577 57.9922 29.5538C58.0279 29.5306 58.0556 29.4976 58.072 29.459L61.7946 20.8605C61.8081 20.8285 61.8133 20.7938 61.8097 20.7593C61.8062 20.7249 61.7939 20.6919 61.7741 20.6631C61.7543 20.6344 61.7275 20.6109 61.6962 20.5947C61.6648 20.5785 61.6298 20.5701 61.5943 20.5702H45.215C45.1683 20.5711 45.1226 20.5572 45.0847 20.5305C45.0469 20.5039 45.0189 20.466 45.005 20.4226C44.9911 20.3792 44.9921 20.3325 45.0077 20.2896C45.0233 20.2468 45.0528 20.21 45.0917 20.1848L52.5831 15.1799C52.6206 15.1585 52.6629 15.1464 52.7063 15.1449H68.8392C69.0573 15.1451 69.2718 15.1987 69.4631 15.3006C69.6545 15.4025 69.8165 15.5495 69.9345 15.7283C70.0525 15.907 70.1226 16.1117 70.1385 16.3237C70.1544 16.5357 70.1154 16.7481 70.0253 16.9417L62.3234 35.2797C62.1923 35.5902 61.9696 35.8559 61.6835 36.043C61.3974 36.2301 61.0608 36.3302 60.7163 36.3307H50.4882C50.4452 36.3298 50.4029 36.3419 50.3671 36.3651C50.3313 36.3884 50.3037 36.4218 50.2879 36.4608L47.6385 42.5668C47.6275 42.5981 47.608 42.6258 47.582 42.6469L38.8173 49.9841C38.7801 50.0181 38.7319 50.0381 38.6811 50.0407C38.6302 50.0433 38.5801 50.0283 38.5395 49.9983C38.499 49.9684 38.4706 49.9254 38.4594 49.877C38.4482 49.8286 38.4549 49.7779 38.4784 49.7339L51.0838 22.6172C51.1 22.5799 51.1272 22.5481 51.1619 22.5259C51.1966 22.5036 51.2374 22.4919 51.2789 22.4921Z" fill="#365528"/>
<path d="M81.3938 27.1216H68.5574C68.5211 27.1226 68.4852 27.1145 68.4532 27.098C68.4211 27.0816 68.394 27.0573 68.3744 27.0276C68.3547 26.9979 68.3433 26.9638 68.3412 26.9285C68.3391 26.8933 68.3463 26.8581 68.3622 26.8263L70.5547 22.6072C70.5729 22.5721 70.6009 22.5428 70.6354 22.5224C70.6699 22.5021 70.7095 22.4916 70.7498 22.4921H81.476C81.6777 22.4931 81.8762 22.5411 82.0551 22.6319C82.234 22.7228 82.388 22.8539 82.5045 23.0144C82.621 23.1749 82.6965 23.3602 82.7248 23.5549C82.7531 23.7495 82.7333 23.948 82.6672 24.1337L81.5787 26.9865C81.5637 27.0235 81.5385 27.0557 81.5058 27.0795C81.4732 27.1034 81.4344 27.1179 81.3938 27.1216Z" fill="#365528"/>
<path d="M110.974 26.8814L110.214 22.6623C110.205 22.6146 110.178 22.5715 110.14 22.5405C110.102 22.5095 110.053 22.4924 110.004 22.4921H101.947C101.599 22.4902 101.255 22.5697 100.944 22.7238C100.633 22.8779 100.364 23.1022 100.161 23.378L97.6652 26.8013C97.6435 26.8326 97.631 26.869 97.6291 26.9067C97.6273 26.9444 97.6361 26.9819 97.6547 27.015C97.6733 27.0481 97.7009 27.0756 97.7344 27.0944C97.768 27.1132 97.8062 27.1226 97.8449 27.1216H110.764C110.794 27.1221 110.825 27.1159 110.853 27.1034C110.882 27.091 110.907 27.0727 110.927 27.0497C110.947 27.0268 110.961 26.9998 110.97 26.9707C110.978 26.9416 110.979 26.9111 110.974 26.8814Z" fill="#365528"/>
<path d="M97.8248 28.2027H104.818C104.854 28.2028 104.889 28.2116 104.92 28.2282C104.952 28.2448 104.978 28.2687 104.998 28.2978L107.313 31.7312C107.808 32.4607 108.09 33.3071 108.131 34.1806C108.171 35.054 107.968 35.9218 107.543 36.6918C107.118 37.4618 106.487 38.1051 105.717 38.5535C104.947 39.002 104.067 39.2387 103.17 39.2385H96.0893C96.0411 39.2379 95.9944 39.2219 95.9564 39.193C95.9183 39.1641 95.8911 39.1238 95.8788 39.0784L94.5797 34.3838C94.576 34.3544 94.5788 34.3245 94.5881 34.2963C94.5973 34.2681 94.6127 34.2422 94.6332 34.2203C94.6537 34.1984 94.6788 34.1811 94.7068 34.1696C94.7348 34.1581 94.765 34.1526 94.7954 34.1535H100.911C100.95 34.1543 100.989 34.1447 101.023 34.1256C101.057 34.1065 101.085 34.0787 101.104 34.0452C101.123 34.0118 101.132 33.9738 101.131 33.9356C101.129 33.8974 101.117 33.8602 101.096 33.8282L97.6451 28.528C97.6238 28.4964 97.6117 28.4597 97.61 28.4219C97.6084 28.3841 97.6172 28.3466 97.6356 28.3132C97.654 28.2799 97.6813 28.2521 97.7146 28.2326C97.7479 28.2132 97.786 28.2028 97.8248 28.2027Z" fill="#365528"/>
<path d="M96.5302 26.8814L95.7702 22.6623C95.7607 22.6146 95.7346 22.5715 95.6962 22.5405C95.6578 22.5095 95.6096 22.4924 95.5597 22.4921H87.5138C87.1687 22.4938 86.8288 22.575 86.5218 22.7289C86.2149 22.8828 85.9496 23.1052 85.7475 23.378L83.2521 26.8014C83.2304 26.8326 83.2179 26.8691 83.2161 26.9067C83.2142 26.9444 83.2231 26.9819 83.2416 27.015C83.2602 27.0481 83.2878 27.0756 83.3213 27.0944C83.3549 27.1132 83.3931 27.1227 83.4318 27.1217H96.3248C96.3553 27.1214 96.3854 27.1146 96.413 27.1019C96.4405 27.0891 96.4649 27.0707 96.4845 27.0478C96.504 27.025 96.5182 26.9983 96.5261 26.9695C96.534 26.9408 96.5354 26.9107 96.5302 26.8814Z" fill="#365528"/>
<path d="M83.3858 28.2027H90.3689C90.4046 28.2028 90.4396 28.2116 90.471 28.2282C90.5024 28.2448 90.529 28.2687 90.5486 28.2978L92.8745 31.7312C93.369 32.4607 93.6514 33.3071 93.6918 34.1806C93.7323 35.054 93.5292 35.9218 93.1042 36.6918C92.6793 37.4618 92.0482 38.1051 91.2782 38.5535C90.5082 39.002 89.6279 39.2387 88.7309 39.2385H81.6401C81.5918 39.2379 81.5452 39.2219 81.5071 39.193C81.4691 39.1641 81.4419 39.1238 81.4295 39.0784L80.1305 34.3888C80.1268 34.3594 80.1296 34.3295 80.1389 34.3013C80.1481 34.2731 80.1635 34.2472 80.184 34.2253C80.2045 34.2034 80.2296 34.1861 80.2576 34.1746C80.2856 34.1631 80.3158 34.1576 80.3461 34.1585H86.4614C86.5007 34.1593 86.5394 34.1497 86.5734 34.1306C86.6075 34.1115 86.6355 34.0837 86.6545 34.0502C86.6735 34.0168 86.6828 33.9789 86.6814 33.9406C86.6799 33.9024 86.6678 33.8652 86.6463 33.8332L83.2061 28.528C83.1849 28.4964 83.1728 28.4597 83.1711 28.4219C83.1694 28.3841 83.1783 28.3466 83.1967 28.3132C83.2151 28.2799 83.2424 28.2521 83.2757 28.2326C83.3089 28.2132 83.347 28.2028 83.3858 28.2027Z" fill="#365528"/>
<path d="M173.985 27.1667L175.356 24.2989C175.45 24.1054 175.492 23.892 175.478 23.6785C175.464 23.4649 175.395 23.2583 175.277 23.0779C175.159 22.8975 174.996 22.7491 174.804 22.6467C174.611 22.5442 174.395 22.4911 174.175 22.4921H163.988C163.728 22.4917 163.473 22.5679 163.258 22.7108C163.043 22.8537 162.877 23.0565 162.782 23.2929L156.718 38.0724C156.665 38.2008 156.645 38.3399 156.66 38.4776C156.675 38.6152 156.725 38.7471 156.804 38.8617C156.884 38.9764 156.991 39.0702 157.117 39.135C157.242 39.1999 157.382 39.2337 157.524 39.2335H167.413C167.444 39.2327 167.474 39.2256 167.501 39.2126C167.528 39.1997 167.553 39.1812 167.572 39.1584L171.742 34.5039C171.767 34.4728 171.784 34.4352 171.789 34.3955C171.794 34.3558 171.788 34.3155 171.771 34.2791C171.754 34.2428 171.726 34.2117 171.692 34.1895C171.658 34.1673 171.618 34.1549 171.577 34.1535H163.085C163.049 34.154 163.013 34.1457 162.981 34.1292C162.949 34.1127 162.922 34.0887 162.902 34.0593C162.882 34.0299 162.87 33.996 162.867 33.9609C162.864 33.9258 162.87 33.8905 162.884 33.8582L165.662 27.4169C165.679 27.3783 165.706 27.3453 165.742 27.3221C165.778 27.2989 165.82 27.2866 165.863 27.2868H173.79C173.831 27.2868 173.871 27.2756 173.906 27.2543C173.94 27.233 173.968 27.2027 173.985 27.1667Z" fill="#365528"/>
<path d="M173.236 28.453H166.006C165.976 28.4528 165.945 28.4589 165.917 28.471C165.889 28.4831 165.864 28.5009 165.844 28.5231C165.824 28.5454 165.808 28.5716 165.799 28.6001C165.79 28.6285 165.787 28.6586 165.791 28.6882L166.622 33.1226C166.633 33.1702 166.66 33.2127 166.7 33.2429C166.739 33.273 166.788 33.2889 166.838 33.2877H170.504C170.533 33.2881 170.561 33.283 170.587 33.2727C170.614 33.2624 170.638 33.2471 170.658 33.2277L171.88 32.0715C171.896 32.0527 171.909 32.0326 171.921 32.0115L173.436 28.7333C173.449 28.7018 173.453 28.6678 173.449 28.6342C173.445 28.6007 173.433 28.5686 173.413 28.5409C173.393 28.5131 173.366 28.4906 173.336 28.4753C173.305 28.4599 173.27 28.4523 173.236 28.453Z" fill="#365528"/>
<path d="M125.916 27.1667L127.287 24.2989C127.381 24.1054 127.423 23.892 127.409 23.6785C127.395 23.4649 127.326 23.2583 127.208 23.0779C127.09 22.8975 126.927 22.7491 126.734 22.6467C126.542 22.5442 126.326 22.4911 126.106 22.4921H115.919C115.659 22.4924 115.405 22.5689 115.189 22.7116C114.974 22.8544 114.808 23.0569 114.712 23.2929L108.648 38.0724C108.596 38.2008 108.576 38.3399 108.591 38.4776C108.606 38.6152 108.655 38.7471 108.735 38.8617C108.815 38.9764 108.922 39.0702 109.047 39.135C109.173 39.1999 109.313 39.2337 109.455 39.2335H119.344C119.375 39.2328 119.406 39.2257 119.434 39.2128C119.462 39.1999 119.488 39.1814 119.508 39.1584L123.672 34.5039C123.7 34.4734 123.719 34.4357 123.725 34.3952C123.731 34.3548 123.725 34.3135 123.708 34.2763C123.69 34.2391 123.662 34.2077 123.627 34.1859C123.591 34.1641 123.55 34.1529 123.508 34.1535H115.015C114.98 34.1528 114.945 34.1436 114.913 34.1268C114.882 34.11 114.856 34.0861 114.836 34.057C114.816 34.028 114.804 33.9948 114.8 33.9601C114.797 33.9255 114.802 33.8905 114.815 33.8582L117.583 27.4169C117.599 27.3783 117.627 27.3453 117.662 27.3221C117.698 27.2989 117.74 27.2866 117.783 27.2868H125.711C125.753 27.2895 125.796 27.2794 125.833 27.258C125.869 27.2365 125.898 27.2047 125.916 27.1667Z" fill="#365528"/>
<path d="M125.166 28.453H117.936C117.906 28.4518 117.875 28.4573 117.847 28.4691C117.819 28.481 117.793 28.4988 117.773 28.5214C117.753 28.544 117.738 28.5707 117.73 28.5996C117.722 28.6284 117.72 28.6587 117.726 28.6882L118.553 33.1226C118.564 33.1698 118.592 33.2118 118.631 33.2417C118.67 33.2717 118.718 33.2879 118.768 33.2877H122.434C122.463 33.2881 122.491 33.283 122.517 33.2727C122.544 33.2624 122.568 33.2471 122.588 33.2277L123.81 32.0715L123.851 32.0115L125.366 28.7333C125.379 28.7018 125.383 28.6678 125.379 28.6342C125.375 28.6007 125.363 28.5686 125.343 28.5409C125.323 28.5131 125.297 28.4906 125.266 28.4753C125.235 28.4599 125.201 28.4523 125.166 28.453Z" fill="#365528"/>
<path d="M175.352 39.2336H171.496C171.46 39.2336 171.424 39.2251 171.392 39.2086C171.36 39.1921 171.333 39.1683 171.312 39.1391C171.292 39.11 171.28 39.0764 171.276 39.0414C171.272 39.0064 171.277 38.971 171.29 38.9383L178.094 22.6273C178.109 22.5877 178.137 22.5536 178.172 22.5295C178.208 22.5054 178.25 22.4924 178.294 22.4921H182.135C182.17 22.492 182.205 22.5004 182.236 22.5166C182.268 22.5328 182.295 22.5563 182.314 22.585C182.334 22.6138 182.346 22.6468 182.35 22.6812C182.354 22.7157 182.348 22.7504 182.335 22.7824L175.552 39.0984C175.536 39.1376 175.508 39.1713 175.473 39.1954C175.437 39.2194 175.395 39.2327 175.352 39.2336Z" fill="#365528"/>
<path d="M183.669 22.6272L181.96 27.0266C181.947 27.0587 181.943 27.0934 181.947 27.1275C181.951 27.1617 181.964 27.1943 181.984 27.2224C182.005 27.2506 182.032 27.2735 182.063 27.2891C182.095 27.3046 182.13 27.3125 182.165 27.3118H189.394C189.427 27.3118 189.458 27.3048 189.488 27.2912C189.517 27.2776 189.542 27.2578 189.562 27.2333C189.583 27.2089 189.597 27.1803 189.604 27.1497C189.612 27.1191 189.612 27.0873 189.605 27.0566L188.635 22.6873C188.625 22.6396 188.599 22.5966 188.56 22.5655C188.522 22.5345 188.474 22.5174 188.424 22.5171H183.875C183.833 22.5148 183.792 22.524 183.756 22.5434C183.72 22.5629 183.69 22.5919 183.669 22.6272Z" fill="#365528"/>
<path d="M128.637 27.2868H136.339C136.41 27.2866 136.48 27.3034 136.542 27.3358C136.605 27.3682 136.659 27.4152 136.698 27.4727C136.738 27.5301 136.762 27.5962 136.77 27.665C136.777 27.7339 136.766 27.8034 136.739 27.8674L132.139 38.9383C132.125 38.971 132.12 39.0064 132.124 39.0414C132.128 39.0764 132.141 39.11 132.161 39.1391C132.181 39.1683 132.208 39.1921 132.24 39.2086C132.272 39.2251 132.308 39.2336 132.344 39.2336H136.811C136.855 39.233 136.898 39.2199 136.935 39.1959C136.971 39.1719 136.999 39.138 137.017 39.0984L143.122 24.2338C143.2 24.041 143.23 23.8322 143.206 23.6258C143.183 23.4194 143.109 23.2217 142.989 23.0499C142.87 22.878 142.709 22.7374 142.521 22.6401C142.332 22.5429 142.123 22.4921 141.91 22.4921H130.419C130.375 22.4927 130.332 22.5058 130.295 22.5298C130.259 22.5538 130.23 22.5877 130.213 22.6273L128.452 26.9966C128.439 27.0274 128.433 27.0608 128.436 27.0941C128.439 27.1274 128.45 27.1596 128.468 27.1879C128.486 27.2163 128.511 27.2401 128.54 27.2573C128.57 27.2745 128.603 27.2846 128.637 27.2868Z" fill="#365528"/>
<path d="M127.903 39.2335H123.744C123.708 39.2337 123.673 39.2253 123.642 39.2091C123.611 39.1928 123.584 39.1693 123.564 39.1406C123.544 39.1119 123.532 39.0789 123.528 39.0444C123.525 39.01 123.53 38.9752 123.544 38.9432L127.903 28.468C127.918 28.4284 127.946 28.3943 127.982 28.3702C128.017 28.3461 128.06 28.3331 128.103 28.3328H132.262C132.298 28.3327 132.333 28.3411 132.364 28.3573C132.395 28.3735 132.422 28.397 132.442 28.4257C132.462 28.4545 132.474 28.4875 132.478 28.5219C132.481 28.5564 132.476 28.5911 132.462 28.6231L128.103 39.0984C128.088 39.138 128.06 39.172 128.024 39.1962C127.989 39.2203 127.946 39.2333 127.903 39.2335Z" fill="#365528"/>
<path d="M147.168 22.4921H159.583C159.619 22.492 159.654 22.5004 159.685 22.5166C159.717 22.5328 159.743 22.5563 159.763 22.585C159.783 22.6138 159.795 22.6468 159.799 22.6812C159.802 22.7157 159.797 22.7504 159.784 22.7824L150.793 44.6489C150.695 44.8839 150.527 45.0851 150.312 45.2269C150.096 45.3686 149.841 45.4444 149.581 45.4447H139.25C139.203 45.4459 139.157 45.431 139.119 45.4028C139.082 45.3745 139.056 45.3345 139.045 45.2895L137.782 40.655C137.773 40.6236 137.772 40.5907 137.779 40.5588C137.785 40.5269 137.799 40.497 137.819 40.4713C137.84 40.4456 137.866 40.4248 137.896 40.4107C137.926 40.3965 137.959 40.3893 137.992 40.3897H146.922C146.964 40.3902 147.005 40.378 147.04 40.3547C147.075 40.3315 147.102 40.2982 147.117 40.2596L147.687 38.9783C147.701 38.9461 147.707 38.9108 147.704 38.8757C147.701 38.8405 147.689 38.8067 147.669 38.7773C147.649 38.7479 147.622 38.7238 147.59 38.7074C147.558 38.6909 147.522 38.6825 147.486 38.683H141.083C140.943 38.683 140.805 38.6498 140.68 38.5861C140.556 38.5225 140.449 38.4303 140.369 38.3175C140.289 38.2048 140.239 38.0749 140.222 37.9389C140.205 37.8029 140.222 37.665 140.272 37.5369L143.661 28.6131C143.679 28.5648 143.712 28.523 143.755 28.4934C143.798 28.4639 143.85 28.448 143.902 28.448H148.303C148.345 28.4478 148.387 28.4581 148.425 28.4778C148.463 28.4975 148.495 28.526 148.518 28.5608C148.542 28.5956 148.556 28.6355 148.559 28.677C148.563 28.7185 148.556 28.7602 148.539 28.7983L146.275 33.8533C146.26 33.8855 146.254 33.9208 146.257 33.9559C146.26 33.9911 146.272 34.0249 146.292 34.0543C146.312 34.0837 146.339 34.1078 146.371 34.1242C146.403 34.1407 146.439 34.1491 146.475 34.1486H149.669C149.711 34.1487 149.753 34.1365 149.789 34.1133C149.825 34.0901 149.852 34.0571 149.869 34.0184L152.708 27.5771C152.723 27.5453 152.729 27.5104 152.726 27.4757C152.723 27.441 152.712 27.4075 152.692 27.3782C152.673 27.3489 152.646 27.3248 152.615 27.308C152.584 27.2912 152.549 27.2822 152.513 27.2818H144.529C144.488 27.2818 144.447 27.2721 144.41 27.2536C144.374 27.235 144.342 27.2082 144.319 27.1753C144.295 27.1424 144.28 27.1044 144.274 27.0646C144.269 27.0248 144.273 26.9843 144.287 26.9465L145.54 23.6032C145.662 23.2775 145.883 22.996 146.174 22.7972C146.465 22.5984 146.812 22.4919 147.168 22.4921Z" fill="#365528"/>
<path fill-rule="evenodd" clip-rule="evenodd" d="M194.545 17.8626C195.229 17.8626 195.898 18.0604 196.467 18.4311C197.036 18.8017 197.48 19.3286 197.742 19.945C198.004 20.5613 198.072 21.2396 197.939 21.894C197.805 22.5483 197.476 23.1494 196.992 23.6212C196.508 24.0929 195.891 24.4142 195.22 24.5444C194.549 24.6745 193.853 24.6077 193.22 24.3524C192.588 24.0971 192.047 23.6647 191.667 23.11C191.287 22.5552 191.084 21.903 191.084 21.2359C191.083 20.7927 191.172 20.3537 191.346 19.9442C191.52 19.5346 191.775 19.1625 192.096 18.8491C192.418 18.5357 192.799 18.2873 193.22 18.118C193.64 17.9487 194.09 17.8619 194.545 17.8626ZM194.545 18.3981C195.121 18.3981 195.683 18.5645 196.162 18.8763C196.641 19.1882 197.014 19.6314 197.234 20.1499C197.455 20.6684 197.512 21.239 197.4 21.7895C197.288 22.34 197.01 22.8456 196.603 23.2425C196.196 23.6394 195.677 23.9096 195.113 24.0191C194.548 24.1286 193.963 24.0724 193.431 23.8576C192.899 23.6429 192.444 23.2791 192.124 22.8125C191.804 22.3458 191.633 21.7971 191.633 21.2359C191.633 20.863 191.708 20.4937 191.854 20.1491C192 19.8045 192.214 19.4914 192.485 19.2278C192.755 18.9641 193.076 18.7551 193.43 18.6127C193.783 18.4704 194.162 18.3974 194.545 18.3981Z" fill="#365528"/>
<path fill-rule="evenodd" clip-rule="evenodd" d="M196.141 22.2468L195.566 21.8064V21.8465C195.464 21.9981 195.326 22.1231 195.163 22.2104C195 22.2976 194.818 22.3445 194.632 22.3469C194.437 22.3468 194.247 22.2977 194.078 22.2044C193.909 22.1111 193.768 21.9767 193.668 21.8144C193.568 21.652 193.513 21.4673 193.508 21.2781C193.503 21.0889 193.549 20.9017 193.64 20.7348C193.732 20.5678 193.866 20.4268 194.03 20.3254C194.194 20.224 194.382 20.1657 194.576 20.1562C194.77 20.1467 194.963 20.1862 195.136 20.2711C195.31 20.3559 195.458 20.4831 195.566 20.6403V20.6753L196.141 20.2199V20.1898C195.914 19.8768 195.59 19.6423 195.217 19.5203C194.844 19.3984 194.441 19.3953 194.066 19.5115C193.691 19.6277 193.364 19.8572 193.132 20.1668C192.9 20.4763 192.774 20.8499 192.774 21.2333C192.774 21.6168 192.9 21.9904 193.132 22.2999C193.364 22.6095 193.691 22.839 194.066 22.9552C194.441 23.0714 194.844 23.0683 195.217 22.9464C195.59 22.8244 195.914 22.5899 196.141 22.2769V22.2468Z" fill="#365528"/>
<path d="M39.4637 11.5439L21.4839 2.98464C21.1832 2.8415 20.8204 2.96305 20.6736 3.25614C20.5267 3.54922 20.6514 3.90285 20.9521 4.04598L38.9319 12.6052C39.2326 12.7484 39.5954 12.6268 39.7422 12.3337C39.8891 12.0406 39.7644 11.687 39.4637 11.5439Z" fill="#EAEFEB"/>
<path d="M68.4699 28.2027H73.0089C73.0616 28.2034 73.1123 28.2224 73.1519 28.2564C73.1914 28.2904 73.2172 28.337 73.2246 28.3879L73.7996 33.0325C73.8033 33.0621 73.8004 33.0921 73.7912 33.1206C73.782 33.1491 73.7667 33.1753 73.7463 33.1975C73.7259 33.2198 73.7009 33.2376 73.6729 33.2497C73.6449 33.2617 73.6146 33.2679 73.584 33.2677H71.1913C71.1308 33.2677 71.071 33.2794 71.0152 33.3021C70.9594 33.3248 70.9088 33.358 70.8663 33.3999C70.8238 33.4418 70.7903 33.4915 70.7676 33.5461C70.7449 33.6007 70.7336 33.6592 70.7343 33.7181C70.7343 33.8363 70.7824 33.9496 70.8681 34.0331C70.9538 34.1166 71.0701 34.1636 71.1913 34.1636H74.1847C74.2269 34.1635 74.2681 34.1517 74.3036 34.1295C74.3391 34.1074 74.3673 34.0758 74.385 34.0384L76.9523 28.3178C76.9699 28.2805 76.9982 28.2489 77.0336 28.2267C77.0691 28.2046 77.1104 28.1927 77.1525 28.1927H80.8957C80.9303 28.1924 80.9646 28.2002 80.9955 28.2155C81.0264 28.2308 81.053 28.2532 81.0732 28.2807C81.0934 28.3082 81.1064 28.3401 81.1113 28.3735C81.1161 28.407 81.1126 28.4411 81.101 28.473L77.1885 39.0834C77.1729 39.1243 77.1449 39.1596 77.1082 39.1846C77.0715 39.2097 77.0279 39.2232 76.9831 39.2235H65.0349C64.8956 39.2226 64.7586 39.1892 64.6352 39.1261C64.5119 39.063 64.4058 38.9721 64.3259 38.8608C64.246 38.7496 64.1945 38.6214 64.1759 38.4868C64.1572 38.3523 64.1718 38.2153 64.2185 38.0874L67.6535 28.7532C67.7155 28.5911 67.827 28.4514 67.973 28.3529C68.119 28.2545 68.2924 28.2021 68.4699 28.2027Z" fill="#365528"/>
</g>
<defs>
<clipPath id="clip0_498_727">
<rect width="198" height="56" fill="white"/>
</clipPath>
</defs>
</svg>
