<svg width="627" height="289" viewBox="0 0 627 289" fill="none" xmlns="http://www.w3.org/2000/svg">
<path d="M118.5 191.77H94.39V148.58C94.39 133.84 92.5967 121.03 89.01 110.15C85.4233 99.27 79.19 87.4034 70.31 74.55C64.9522 67.0251 58.7668 60.1252 51.87 53.98C43.13 45.8146 33.3037 38.8959 22.67 33.42V191.77H0V0C9.55303 2.55979 18.8466 6.0047 27.76 10.29C36.5779 14.8685 45.0031 20.1664 52.95 26.13C62.0685 32.7807 70.4316 40.4095 77.89 48.88C84.4758 56.1634 90.3367 64.0707 95.39 72.49V3.13H118.52L118.5 191.77Z" fill="#0036A3"/>
<path d="M211.39 191.77H195.55V155.24H152C151.04 158.84 150.26 161.81 149.66 164.15C148.899 167.325 148.299 170.536 147.86 173.77C146.986 179.732 146.505 185.745 146.42 191.77H131.67C131.8 181.09 133.142 170.459 135.67 160.08C138.386 148.464 142.366 137.18 147.54 126.43C155.095 110.407 165.173 95.6999 177.39 82.8705C187.234 72.2381 198.711 63.245 211.39 56.2305V191.77ZM195.55 140.13V85.5605C191.394 89.0058 187.466 92.7169 183.79 96.6705C180.009 100.863 176.508 105.299 173.31 109.95C169.705 115.121 166.393 120.489 163.39 126.03C160.865 130.588 158.625 135.297 156.68 140.13H195.55Z" fill="#0036A3"/>
<path d="M239.93 191.77H223.74V57.1299H239.93V191.77Z" fill="#0036A3"/>
<path d="M331.47 191.77L315.28 191.58C314.488 185.786 313.101 180.089 311.14 174.58C308.867 169.113 305.967 163.929 302.5 159.13C299.055 153.92 294.909 149.21 290.18 145.13C285.076 141.141 279.48 137.823 273.53 135.26C281.623 135.26 288.503 132.08 294.17 125.72C299.752 119.619 302.795 111.618 302.68 103.35C302.724 99.2268 301.849 95.1457 300.119 91.4027C298.39 87.6597 295.848 84.3487 292.68 81.7099C286.35 75.961 278.081 72.8176 269.53 72.9099V191.77H254.1V57.1299H272.99C285.35 57.1299 296.017 61.6465 304.99 70.6799C309.339 74.8802 312.783 79.9257 315.11 85.5062C317.436 91.0867 318.597 97.0842 318.52 103.13C318.616 110.573 316.72 117.906 313.03 124.37C309.37 130.723 305.44 134.75 301.24 136.45C305.7 139.316 309.705 142.835 313.12 146.89C316.588 151.21 319.604 155.874 322.12 160.81C324.65 165.515 326.726 170.451 328.32 175.55C329.843 180.854 330.897 186.281 331.47 191.77Z" fill="#0036A3"/>
<path d="M469.28 124.21C469.28 142.77 462.593 158.77 449.22 172.21C435.847 185.65 419.743 192.36 400.91 192.34C381.95 192.34 365.573 185.674 351.78 172.34C337.987 159.007 331.09 142.964 331.09 124.21C331.09 105.757 337.867 89.9736 351.42 76.8603C364.973 63.747 381.11 57.1703 399.83 57.1303C408.878 56.9985 417.863 58.6631 426.264 62.0274C434.664 65.3918 442.314 70.3892 448.77 76.7303C462.45 89.817 469.287 105.644 469.28 124.21ZM453.09 123.5C453.09 109.314 447.93 97.1936 437.61 87.1403C432.758 82.2722 426.978 78.4294 420.611 75.8405C414.244 73.2516 407.422 71.9695 400.55 72.0703C393.553 71.968 386.606 73.2643 380.117 75.883C373.627 78.5018 367.726 82.3903 362.76 87.3203C352.2 97.4936 346.92 109.79 346.92 124.21C346.92 138.63 352.2 151.104 362.76 161.63C373.313 172.15 385.91 177.41 400.55 177.41C415.057 177.41 427.44 172.077 437.7 161.41C447.96 150.744 453.09 138.107 453.09 123.5Z" fill="#0036A3"/>
<path d="M544.13 149.27C544.13 166.043 537.953 178.016 525.6 185.19C517.32 189.93 506.763 192.303 493.93 192.31C491.29 192.31 489.1 192.24 487.36 192.12C485.879 192.035 484.406 191.851 482.95 191.57V58.1297C484.51 57.5297 487.75 57.2197 492.67 57.2197C503.337 57.2197 512.453 59.4097 520.02 63.7897C530.807 70.1097 536.983 80.3831 538.55 94.6097C538.67 95.8197 538.76 96.8897 538.82 97.7997C538.88 98.7097 538.91 99.4097 538.91 99.8997C538.91 106.706 536.75 113.706 532.43 120.9C536.099 124.74 539.124 129.146 541.39 133.95C543.347 138.814 544.28 144.029 544.13 149.27ZM528.3 149.45C528.366 143.144 525.998 137.055 521.69 132.45C515.863 126.13 510.807 122.97 506.52 122.97C509.04 122.116 512.04 119.926 515.52 116.4C520.8 111.066 523.44 105.293 523.44 99.0797V96.9297C523.494 93.8092 522.88 90.7131 521.638 87.8498C520.396 84.9865 518.556 82.4223 516.24 80.3297C511.652 75.9222 505.511 73.5006 499.15 73.5897V175.89C500.036 176.032 500.933 176.092 501.83 176.07C508.82 175.891 515.471 173.024 520.402 168.066C525.332 163.108 528.161 156.44 528.3 149.45Z" fill="#0036A3"/>
<path d="M573.76 191.77H557.57V57.1299H573.76V191.77Z" fill="#0036A3"/>
<path d="M232.84 44.0794C241.461 44.0794 248.45 37.0905 248.45 28.4694C248.45 19.8482 241.461 12.8594 232.84 12.8594C224.219 12.8594 217.23 19.8482 217.23 28.4694C217.23 37.0905 224.219 44.0794 232.84 44.0794Z" fill="#0036A3"/>
<path d="M565.67 44.0794C574.291 44.0794 581.28 37.0905 581.28 28.4694C581.28 19.8482 574.291 12.8594 565.67 12.8594C557.049 12.8594 550.06 19.8482 550.06 28.4694C550.06 37.0905 557.049 44.0794 565.67 44.0794Z" fill="#0036A3"/>
<path d="M626.78 217.93H0V226.96H626.78V217.93Z" fill="#0036A3"/>
<path d="M603.39 174.67V182.73H600.76V164.02H609.7C613.53 164.02 616.1 165.78 616.1 169.1C616.171 170.132 615.862 171.154 615.232 171.976C614.603 172.797 613.695 173.36 612.68 173.56C613.91 173.91 615.61 174.84 615.61 178.12V178.94C615.548 180.207 615.621 181.478 615.83 182.73H613.12C612.873 181.479 612.793 180.201 612.88 178.93V178.3C612.88 175.54 611.81 174.67 608.53 174.67H603.39ZM603.39 172.5H609.03C611.95 172.5 613.38 171.5 613.38 169.25C613.38 167.25 611.94 166.19 609.13 166.19H603.39V172.5Z" fill="#0036A3"/>
<path d="M608.39 191.78C604.751 191.78 601.193 190.701 598.168 188.68C595.142 186.658 592.783 183.784 591.391 180.422C589.998 177.06 589.634 173.36 590.344 169.791C591.054 166.222 592.806 162.943 595.379 160.37C597.953 157.796 601.231 156.044 604.8 155.334C608.37 154.624 612.069 154.988 615.431 156.381C618.794 157.774 621.667 160.132 623.689 163.158C625.711 166.184 626.79 169.741 626.79 173.38C626.785 178.259 624.844 182.936 621.395 186.385C617.945 189.835 613.268 191.775 608.39 191.78ZM608.39 157.24C605.198 157.24 602.077 158.187 599.423 159.961C596.769 161.734 594.7 164.255 593.479 167.204C592.257 170.153 591.937 173.398 592.56 176.529C593.183 179.66 594.72 182.536 596.977 184.793C599.234 187.05 602.11 188.588 605.241 189.21C608.372 189.833 611.617 189.513 614.567 188.292C617.516 187.07 620.036 185.002 621.81 182.347C623.583 179.693 624.53 176.573 624.53 173.38C624.525 169.102 622.823 164.999 619.797 161.974C616.771 158.948 612.669 157.246 608.39 157.24Z" fill="#0036A3"/>
<path d="M5.74 264.13V286.33H0V236.93H10.39C13.069 236.855 15.7488 237.046 18.39 237.5C19.9806 237.84 21.4913 238.481 22.84 239.39C24.4616 240.578 25.7385 242.176 26.54 244.02C27.4147 246.076 27.8655 248.286 27.8655 250.52C27.8655 252.754 27.4147 254.965 26.54 257.02C25.7385 258.864 24.4616 260.462 22.84 261.65C21.5046 262.583 19.9943 263.236 18.4 263.57C15.7589 264.025 13.079 264.216 10.4 264.14H5.74V264.13ZM5.74 258.8H8.74C13.74 258.8 17.17 258.21 18.91 257.03C20.65 255.85 21.52 253.78 21.52 250.84C21.52 247.687 20.6267 245.47 18.84 244.19C17.0533 242.91 13.6867 242.27 8.74 242.27H5.74V258.8Z" fill="#0036A3"/>
<path d="M48.9199 286.329V236.929H60.5199C62.9596 236.856 65.4001 237.044 67.7999 237.489C69.2714 237.831 70.6547 238.479 71.8599 239.389C73.3724 240.609 74.5466 242.196 75.2699 243.999C76.0989 246.03 76.5104 248.207 76.4799 250.399C76.4799 254.399 75.3599 257.519 73.0899 259.629C70.8199 261.739 67.5199 262.78 63.1599 262.78H62.1099L80.9699 286.329H73.5199L55.5199 262.78H54.6699V286.329H48.9199ZM54.6499 241.889V258.429H59.1399C63.7266 258.429 66.7966 257.836 68.3499 256.65C69.9099 255.47 70.6799 253.409 70.6799 250.459C70.6799 247.293 69.8833 245.073 68.2899 243.799C66.6966 242.526 63.6466 241.889 59.1399 241.889H54.6499Z" fill="#0036A3"/>
<path d="M150.27 261.73C150.282 265.164 149.602 268.565 148.27 271.73C146.962 274.871 145.022 277.71 142.57 280.07C137.56 284.941 130.848 287.666 123.86 287.666C116.872 287.666 110.16 284.941 105.15 280.07C102.685 277.699 100.729 274.851 99.3997 271.7C98.0708 268.548 97.3972 265.16 97.42 261.74C97.4073 258.306 98.0876 254.905 99.42 251.74C100.744 248.58 102.701 245.725 105.17 243.35C107.641 240.954 110.556 239.062 113.75 237.78C120.246 235.18 127.494 235.18 133.99 237.78C137.193 239.057 140.115 240.949 142.59 243.35C145.042 245.713 146.982 248.555 148.29 251.7C149.612 254.878 150.285 258.288 150.27 261.73ZM123.87 282.13C126.517 282.137 129.139 281.613 131.58 280.59C134.055 279.551 136.301 278.036 138.19 276.13C140.091 274.251 141.595 272.011 142.616 269.541C143.636 267.071 144.151 264.422 144.13 261.75C144.142 259.044 143.619 256.362 142.59 253.86C141.581 251.381 140.085 249.13 138.19 247.24C135.344 244.41 131.727 242.481 127.791 241.695C123.855 240.909 119.775 241.3 116.06 242.82C113.611 243.833 111.395 245.337 109.55 247.24C107.646 249.143 106.139 251.406 105.117 253.897C104.096 256.388 103.58 259.057 103.6 261.75C103.583 264.413 104.093 267.054 105.1 269.52C106.14 271.991 107.652 274.236 109.55 276.13C111.433 278.046 113.676 279.572 116.15 280.62C118.597 281.634 121.222 282.147 123.87 282.13Z" fill="#0036A3"/>
<path d="M173.68 286.33V236.93H199.68V242.3H179.55V256.47H199.73V261.94H179.55V286.33H173.68Z" fill="#0036A3"/>
<path d="M222.53 286.33V236.93H248.58V242.3H228.39V256.47H248.57V261.94H228.39V280.87H248.57V286.33H222.53Z" fill="#0036A3"/>
<path d="M290.39 258.899C293.274 260.012 295.792 261.906 297.66 264.369C299.318 266.725 300.177 269.55 300.11 272.429C300.2 274.465 299.859 276.496 299.112 278.392C298.364 280.287 297.225 282.003 295.77 283.429C292.884 286.209 289.054 287.599 284.28 287.599C280.776 287.721 277.333 286.664 274.5 284.599C271.784 282.484 269.894 279.483 269.16 276.119L274.5 273.489C274.989 276.058 276.228 278.424 278.06 280.289C279.751 281.844 281.984 282.674 284.28 282.599C286.908 282.715 289.477 281.8 291.44 280.049C292.342 279.203 293.053 278.174 293.524 277.03C293.994 275.887 294.215 274.655 294.17 273.419C294.21 271.341 293.536 269.311 292.26 267.669C290.716 265.835 288.74 264.412 286.51 263.529L280.51 260.969C277.632 259.894 275.096 258.063 273.17 255.669C271.533 253.419 270.686 250.691 270.76 247.909C270.723 246.258 271.054 244.619 271.731 243.112C272.407 241.606 273.411 240.269 274.67 239.199C277.457 236.843 281.024 235.616 284.67 235.759C287.363 235.69 290.025 236.342 292.38 237.649C294.596 238.951 296.367 240.893 297.46 243.219L292.6 246.319C291.698 244.637 290.43 243.178 288.89 242.049C287.52 241.117 285.897 240.629 284.24 240.649C283.249 240.607 282.26 240.762 281.33 241.106C280.399 241.449 279.546 241.974 278.82 242.649C277.557 243.926 276.809 245.623 276.719 247.416C276.629 249.209 277.202 250.972 278.33 252.369C279.718 253.867 281.427 255.03 283.33 255.769L290.39 258.899Z" fill="#0036A3"/>
<path d="M339.7 258.899C342.583 260.015 345.099 261.909 346.97 264.369C348.617 266.728 349.465 269.553 349.39 272.429C349.479 274.465 349.139 276.496 348.391 278.392C347.644 280.287 346.505 282.003 345.05 283.429C342.163 286.209 338.333 287.599 333.56 287.599C330.053 287.719 326.607 286.663 323.77 284.599C321.053 282.485 319.167 279.484 318.44 276.119L323.77 273.489C324.264 276.056 325.502 278.421 327.33 280.289C329.025 281.844 331.261 282.673 333.56 282.599C336.186 282.722 338.754 281.806 340.71 280.049C341.615 279.205 342.329 278.176 342.802 277.033C343.274 275.889 343.495 274.656 343.45 273.419C343.49 271.341 342.815 269.311 341.54 267.669C339.993 265.837 338.018 264.415 335.79 263.529L329.79 260.969C326.909 259.899 324.373 258.067 322.45 255.669C320.813 253.419 319.966 250.691 320.04 247.909C320.003 246.258 320.334 244.619 321.011 243.112C321.687 241.606 322.691 240.269 323.95 239.199C326.736 236.843 330.304 235.616 333.95 235.759C336.643 235.69 339.305 236.342 341.66 237.649C343.871 238.957 345.641 240.897 346.74 243.219L341.88 246.319C340.977 244.637 339.71 243.178 338.17 242.049C336.796 241.117 335.17 240.629 333.51 240.649C332.519 240.609 331.531 240.766 330.601 241.109C329.67 241.452 328.817 241.976 328.09 242.649C326.831 243.928 326.086 245.625 325.997 247.418C325.909 249.21 326.483 250.973 327.61 252.369C328.995 253.869 330.706 255.032 332.61 255.769L339.7 258.899Z" fill="#0036A3"/>
<path d="M371.13 286.33V236.93H377V286.33H371.13Z" fill="#0036A3"/>
<path d="M453.32 261.73C453.332 265.164 452.652 268.565 451.32 271.73C450.012 274.871 448.072 277.71 445.62 280.07C440.61 284.941 433.898 287.666 426.91 287.666C419.922 287.666 413.21 284.941 408.2 280.07C405.735 277.699 403.779 274.851 402.45 271.7C401.121 268.548 400.447 265.16 400.47 261.74C400.457 258.306 401.138 254.905 402.47 251.74C403.794 248.58 405.751 245.725 408.22 243.35C410.691 240.954 413.606 239.062 416.8 237.78C423.296 235.18 430.544 235.18 437.04 237.78C440.243 239.057 443.165 240.949 445.64 243.35C448.092 245.713 450.032 248.555 451.34 251.7C452.662 254.878 453.335 258.288 453.32 261.73ZM426.92 282.13C429.567 282.137 432.189 281.613 434.63 280.59C437.107 279.551 439.353 278.031 441.24 276.12C443.141 274.241 444.645 272.001 445.666 269.531C446.686 267.061 447.201 264.412 447.18 261.74C447.192 259.034 446.669 256.352 445.64 253.85C444.631 251.371 443.135 249.12 441.24 247.23C438.394 244.4 434.777 242.471 430.841 241.685C426.905 240.899 422.825 241.29 419.11 242.81C416.661 243.823 414.445 245.327 412.6 247.23C410.696 249.133 409.189 251.396 408.167 253.887C407.146 256.378 406.63 259.047 406.65 261.74C406.633 264.403 407.143 267.044 408.15 269.51C409.19 271.981 410.702 274.226 412.6 276.12C414.483 278.036 416.726 279.562 419.2 280.61C421.646 281.627 424.271 282.144 426.92 282.13Z" fill="#0036A3"/>
<path d="M476.73 286.33V234.98L512.87 274.46V236.93H518.47V288.26L482.33 249.21V286.33H476.73Z" fill="#0036A3"/>
<path d="M559.73 234.98L582.2 286.33H575.82L569.39 271.18H550.09L543.68 286.33H537.3L559.73 234.98ZM559.73 247.98L551.86 266.13H567.59L559.73 247.98Z" fill="#0036A3"/>
<path d="M601.12 286.33V236.93H606.99V280.73H625.65V286.33H601.12Z" fill="#0036A3"/>
</svg>
