<svg width="763" height="265" viewBox="0 0 763 265" fill="none" xmlns="http://www.w3.org/2000/svg">
<g clip-path="url(#clip0_3701_31462)">
<path fill-rule="evenodd" clip-rule="evenodd" d="M54.7338 149.16C55.1255 149.724 55.5528 149.866 56.1938 149.866C62.1052 149.83 68.0522 149.866 73.9637 149.83C74.2129 149.83 74.4978 149.971 74.6403 149.583C74.6047 149.265 73.8212 148.524 73.6432 148.312C71.1504 145.559 68.8713 142.665 66.6634 139.7C61.2506 132.324 56.7992 124.453 53.9503 115.735C53.5942 114.676 53.5942 114.676 52.3122 114.711C51.8493 114.711 51.4219 114.711 50.959 114.676C47.3623 114.57 43.7656 114.323 40.0977 114.393C40.2757 116.37 40.703 118.135 41.1304 119.899C43.73 130.523 48.6443 140.124 54.7338 149.16Z" fill="black"/>
<path fill-rule="evenodd" clip-rule="evenodd" d="M42.8411 85.6622C40.2059 92.7567 39.0664 100.098 39.3513 107.616C39.3869 108.746 39.3869 108.781 40.562 108.816C44.1943 108.957 47.8267 109.063 51.459 109.169C51.6726 109.169 51.9219 109.169 52.1 109.028C52.3136 108.852 51.5302 105.181 51.459 104.757C50.8892 101.086 50.6399 97.2392 51.1741 93.5685C51.459 91.5213 51.7439 89.5095 52.0644 87.4623C52.1356 87.2858 52.2068 87.1447 52.2424 86.9682C52.7054 84.7799 52.7054 84.7799 50.3906 84.7799C50.0345 84.7799 49.6784 84.7799 49.3223 84.7799C47.6486 84.7446 46.0105 84.7093 44.3368 84.6387C43.2328 84.6387 43.2328 84.6387 42.8411 85.6622Z" fill="black"/>
<path fill-rule="evenodd" clip-rule="evenodd" d="M67.0205 59.0139C69.3352 56.1902 75.7452 50.1546 76.3149 49.3781C74.8193 49.3428 72.5046 48.8134 71.2582 49.8017C67.6259 52.6606 64.136 55.6255 60.8598 58.8727C60.6461 59.0845 60.3256 59.2256 60.3968 59.6845C61.9637 59.7551 63.495 59.7551 65.0619 59.8963C65.9165 59.8963 66.4863 59.6492 67.0205 59.0139Z" fill="black"/>
<path fill-rule="evenodd" clip-rule="evenodd" d="M76.4219 46.3781C77.597 46.3781 78.7366 46.3781 79.8405 46.3781C80.161 46.3781 80.4459 46.3075 80.6952 46.0957C82.9743 44.3662 89.4911 39.7778 89.6691 39.1777C88.9925 39.1777 88.3871 39.1777 87.8174 39.1777C87.5325 39.1777 87.2832 39.1777 87.0339 39.1777C80.9088 42.8132 77.1697 45.3192 76.4219 46.3781Z" fill="black"/>
<path fill-rule="evenodd" clip-rule="evenodd" d="M57.4052 63.7083C56.5149 63.5318 55.9808 64.0612 55.4822 64.6613C51.7787 69.0026 48.5381 73.6617 45.9029 78.7442C45.7248 79.0972 45.4399 79.4149 45.5468 79.9443C48.0751 80.0149 50.6035 80.0855 53.1319 80.1914C53.9509 80.2267 54.307 79.9443 54.5919 79.2031C55.4822 76.6971 56.6218 74.297 57.9038 71.9675C58.6872 70.5556 59.3994 69.1085 60.2541 67.732C60.4321 67.4496 62.8537 64.2377 62.5688 64.0965C62.1058 63.8142 58.6872 63.6377 57.4052 63.7083Z" fill="black"/>
<path d="M332.888 102.11C332.888 104.792 331.962 107.051 330.075 108.851C328.188 110.651 325.908 111.569 323.202 111.569C320.496 111.569 318.252 110.651 316.472 108.851C314.691 107.051 313.801 104.792 313.801 102.11C313.801 99.4272 314.691 97.1682 316.472 95.3682C318.252 93.5681 320.496 92.6504 323.202 92.6504C325.908 92.6504 328.223 93.5681 330.075 95.3682C331.962 97.1682 332.888 99.4272 332.888 102.11Z" fill="black"/>
<path d="M476.08 102.11C476.08 104.792 475.154 107.051 473.266 108.851C471.379 110.651 469.1 111.569 466.393 111.569C463.687 111.569 461.444 110.651 459.663 108.851C457.882 107.051 456.992 104.792 456.992 102.11C456.992 99.4272 457.882 97.1682 459.663 95.3682C461.444 93.5681 463.687 92.6504 466.393 92.6504C469.1 92.6504 471.415 93.5681 473.266 95.3682C475.154 97.1682 476.08 99.4272 476.08 102.11Z" fill="black"/>
<path d="M565.392 102.11C565.392 104.792 564.466 107.051 562.579 108.851C560.692 110.651 558.412 111.569 555.706 111.569C553 111.569 550.756 110.651 548.976 108.851C547.195 107.051 546.305 104.792 546.305 102.11C546.305 99.4272 547.195 97.1682 548.976 95.3682C550.756 93.5681 553 92.6504 555.706 92.6504C558.412 92.6504 560.692 93.5681 562.579 95.3682C564.466 97.1682 565.392 99.4272 565.392 102.11Z" fill="black"/>
<path d="M200.915 110.475V92.7917H277.442C282.214 92.7917 285.882 91.5916 288.482 89.1915C291.046 86.7914 292.328 83.5795 292.328 79.5911C292.328 75.2497 291.046 71.9672 288.482 69.7789C285.918 67.5906 282.214 66.4964 277.442 66.4964H230.543C225.771 66.4964 221.426 65.7905 217.545 64.3434C213.663 62.8962 210.387 60.9197 207.716 58.3431C205.045 55.8018 202.98 52.7664 201.52 49.2368C200.06 45.7072 199.348 41.86 199.348 37.6951C199.348 33.6008 200.024 29.8242 201.377 26.3652C202.731 22.8709 204.761 19.9061 207.396 17.4001C210.067 14.8941 213.378 12.9175 217.296 11.4704C221.213 10.0233 225.735 9.31738 230.792 9.31738H304.115V27.0005H230.828C226.697 27.0005 223.527 28.0947 221.284 30.283C219.041 32.4714 217.901 35.5068 217.901 39.3893C217.901 43.3071 219.041 46.3073 221.355 48.425C223.634 50.5427 226.768 51.6369 230.685 51.6369H277.442C287.841 51.6369 295.711 54.037 301.088 58.8725C306.465 63.708 309.172 71.0142 309.172 80.8617C309.172 85.1325 308.531 89.0856 307.213 92.6858C305.896 96.3213 303.937 99.4273 301.302 102.074C298.667 104.722 295.39 106.769 291.402 108.251C287.414 109.734 282.784 110.475 277.442 110.475H200.915Z" fill="black"/>
<path d="M382.458 110.475C375.335 110.475 368.783 109.169 362.729 106.522C356.711 103.875 351.44 100.239 346.989 95.6859C342.538 91.0975 339.083 85.6267 336.591 79.344C334.098 73.0261 332.852 66.214 332.852 58.8725C332.852 51.4604 334.098 44.6837 336.591 38.5422C339.083 32.4361 342.538 27.2123 346.989 22.9062C351.44 18.6001 356.675 15.2471 362.729 12.8822C368.783 10.5174 375.335 9.31738 382.458 9.31738H407.314C414.721 9.31738 421.452 10.5174 427.612 12.9528C433.737 15.3529 439.008 18.7413 443.388 23.118C447.804 27.4594 451.187 32.6831 453.644 38.754C456.065 44.8248 457.276 51.531 457.276 58.8725C457.276 66.214 456.03 73.0261 453.573 79.344C451.08 85.662 447.626 91.0975 443.174 95.6859C438.723 100.274 433.452 103.91 427.399 106.522C421.309 109.169 414.614 110.475 407.314 110.475H382.458ZM407.314 92.7917C411.979 92.7917 416.288 91.9446 420.241 90.2857C424.158 88.6268 427.577 86.3326 430.426 83.403C433.274 80.4735 435.518 76.9792 437.085 72.8849C438.687 68.7906 439.471 64.414 439.471 59.649C439.471 54.9194 438.687 50.5427 437.085 46.4837C435.482 42.46 433.274 39.0011 430.426 36.1068C427.577 33.2479 424.194 30.9889 420.241 29.3653C416.324 27.7417 412.015 26.9299 407.314 26.9299H382.458C377.864 26.9299 373.626 27.7417 369.745 29.3653C365.863 30.9889 362.515 33.2479 359.702 36.1068C356.889 39.0011 354.681 42.4247 353.114 46.4131C351.512 50.4016 350.728 54.8135 350.728 59.6137C350.728 64.3434 351.512 68.7553 353.114 72.8496C354.717 76.9439 356.889 80.4382 359.702 83.3677C362.515 86.2973 365.863 88.5915 369.745 90.2504C373.626 91.9093 377.864 92.7564 382.458 92.7564H407.314V92.7917Z" fill="black"/>
<path d="M502.217 110.475V26.9652H463.473V9.31738H558.803V27.0005H520.058V110.475H502.217Z" fill="black"/>
<path d="M669.413 110.475L643.595 82.3795H605.385V66.7788H647.94C654.385 66.7788 659.264 65.0493 662.54 61.555C665.816 58.096 667.454 53.0487 667.454 46.4484C667.454 39.8482 665.745 34.9773 662.326 31.7654C658.908 28.5535 654.1 26.9652 647.94 26.9652H592.351V110.475H574.652V9.31738H647.94C653.744 9.31738 658.943 10.1645 663.537 11.894C668.131 13.6235 672.013 16.0589 675.182 19.2708C678.351 22.4827 680.809 26.3299 682.482 30.883C684.156 35.4362 685.011 40.5188 685.011 46.2014C685.011 54.637 683.159 61.7315 679.455 67.4141C675.752 73.132 670.588 77.2263 663.929 79.7323L694.661 110.475H669.413Z" fill="black"/>
<path d="M702.921 110.475V96.7802H744.443C746.259 96.7802 747.612 96.3566 748.467 95.5448C749.322 94.733 749.713 93.7095 749.713 92.2976C749.713 90.0034 748.823 89.2975 748.538 89.0504C747.648 88.3092 746.259 87.921 744.407 87.921H720.406C717.699 87.921 715.171 87.4974 712.927 86.6856C710.648 85.8385 708.69 84.6385 707.087 83.1208C705.485 81.603 704.238 79.7677 703.384 77.6499C702.529 75.5675 702.102 73.3086 702.102 70.8731C702.102 68.5083 702.493 66.2847 703.312 64.2376C704.131 62.1551 705.342 60.3197 706.98 58.802C708.583 57.3196 710.541 56.1196 712.856 55.2725C715.1 54.4607 717.699 54.0371 720.548 54.0371H760.397V67.7318H720.548C719.052 67.7318 717.984 68.0495 717.307 68.7554C716.631 69.426 716.275 70.4143 716.275 71.7555C716.275 73.0968 716.595 74.0498 717.307 74.6851C718.02 75.3557 719.088 75.7087 720.477 75.7087H744.407C750.283 75.7087 754.913 77.1558 758.082 80.0147C761.323 82.9443 762.996 87.2856 762.996 93.0035C762.996 95.4389 762.605 97.7332 761.857 99.8509C761.073 102.004 759.862 103.91 758.296 105.498C756.729 107.087 754.735 108.322 752.384 109.204C750.105 110.051 747.399 110.475 744.407 110.475H702.921Z" fill="black"/>
<path d="M199.846 154.947V149.759H222.281C223.669 149.759 224.773 149.406 225.521 148.7C226.269 147.994 226.661 147.041 226.661 145.876C226.661 144.606 226.269 143.653 225.521 142.982C224.773 142.347 223.705 142.029 222.281 142.029H208.535C207.146 142.029 205.864 141.817 204.724 141.394C203.585 140.97 202.623 140.37 201.84 139.629C201.057 138.888 200.451 138.006 200.024 136.947C199.596 135.923 199.383 134.794 199.383 133.558C199.383 132.358 199.596 131.264 199.988 130.241C200.38 129.217 200.985 128.335 201.769 127.593C202.552 126.852 203.514 126.287 204.689 125.864C205.828 125.44 207.146 125.229 208.642 125.229H230.151V130.417H208.642C207.431 130.417 206.505 130.735 205.828 131.37C205.187 132.005 204.831 132.888 204.831 134.052C204.831 135.182 205.152 136.064 205.828 136.7C206.505 137.335 207.431 137.653 208.57 137.653H222.281C225.343 137.653 227.658 138.359 229.225 139.77C230.792 141.182 231.611 143.335 231.611 146.229C231.611 147.5 231.433 148.63 231.041 149.688C230.649 150.747 230.079 151.665 229.296 152.441C228.513 153.218 227.551 153.818 226.376 154.242C225.201 154.665 223.848 154.912 222.281 154.912H199.846V154.947Z" fill="#263A8B"/>
<path d="M240.477 154.947V125.264H245.711V154.947H240.477Z" fill="#263A8B"/>
<path d="M255.328 154.947V125.264H272.671C274.772 125.264 276.73 125.617 278.511 126.323C280.291 127.028 281.823 128.017 283.14 129.287C284.422 130.558 285.419 132.111 286.167 133.876C286.879 135.641 287.271 137.617 287.271 139.77C287.271 141.923 286.915 143.935 286.167 145.77C285.419 147.641 284.422 149.229 283.14 150.571C281.858 151.912 280.327 152.971 278.511 153.747C276.695 154.524 274.772 154.912 272.671 154.912H255.328V154.947ZM272.671 149.759C274.024 149.759 275.27 149.512 276.41 149.018C277.549 148.524 278.546 147.853 279.366 147.006C280.185 146.159 280.861 145.135 281.324 143.935C281.787 142.735 282.036 141.429 282.036 140.053C282.036 138.676 281.787 137.37 281.324 136.205C280.861 135.005 280.22 134.017 279.366 133.17C278.511 132.323 277.549 131.652 276.41 131.193C275.27 130.735 274.024 130.487 272.671 130.487H260.527V149.794H272.671V149.759Z" fill="#263A8B"/>
<path d="M295.641 154.947V125.264H322.384V130.452H300.84V149.759H322.42V154.947H295.641ZM304.686 142.064V137.688H321.281V142.064H304.686Z" fill="#263A8B"/>
<path d="M360.948 154.947C358.847 154.947 356.924 154.559 355.179 153.782C353.398 153.006 351.867 151.947 350.549 150.606C349.232 149.265 348.235 147.676 347.487 145.806C346.775 143.97 346.383 141.958 346.383 139.805C346.383 137.617 346.739 135.64 347.487 133.84C348.199 132.04 349.232 130.523 350.549 129.252C351.867 127.981 353.398 126.993 355.179 126.322C356.959 125.616 358.882 125.299 360.948 125.299H368.248C370.42 125.299 372.414 125.652 374.195 126.358C376.011 127.064 377.542 128.052 378.824 129.323C380.106 130.593 381.103 132.146 381.816 133.911C382.528 135.676 382.884 137.652 382.884 139.805C382.884 141.958 382.528 143.97 381.78 145.806C381.068 147.676 380.035 149.265 378.718 150.606C377.4 151.947 375.869 153.006 374.088 153.782C372.308 154.559 370.349 154.947 368.212 154.947H360.948ZM368.248 149.759C369.637 149.759 370.883 149.512 372.023 149.018C373.162 148.523 374.159 147.853 375.014 147.006C375.833 146.159 376.51 145.135 376.973 143.935C377.436 142.735 377.685 141.429 377.685 140.052C377.685 138.676 377.436 137.37 376.973 136.205C376.51 135.005 375.869 134.017 375.014 133.17C374.159 132.323 373.198 131.652 372.023 131.193C370.883 130.734 369.601 130.487 368.248 130.487H360.948C359.594 130.487 358.348 130.734 357.209 131.193C356.069 131.652 355.072 132.323 354.253 133.17C353.434 134.017 352.793 135.04 352.33 136.205C351.867 137.37 351.618 138.676 351.618 140.088C351.618 141.464 351.867 142.77 352.33 143.97C352.793 145.17 353.434 146.194 354.253 147.041C355.072 147.888 356.069 148.559 357.209 149.053C358.348 149.547 359.594 149.794 360.948 149.794H368.248V149.759Z" fill="#263A8B"/>
<path d="M391.254 154.947V125.264H416.68V130.452H396.453V154.947H391.254ZM400.263 142.664V138.147H415.434V142.664H400.263Z" fill="#263A8B"/>
<path d="M450.262 154.947V130.452H438.902V125.264H466.857V130.452H455.461V154.947H450.262Z" fill="#263A8B"/>
<path d="M474.441 155.089V125.299H479.676V155.089H474.441ZM498.514 155.089V142.17H483.415V137.547H498.514V125.264H503.749V155.053H498.514V155.089Z" fill="#263A8B"/>
<path d="M513.078 154.947V125.264H539.822V130.452H518.277V149.759H539.858V154.947H513.078ZM522.088 142.064V137.688H538.682V142.064H522.088Z" fill="#263A8B"/>
<path d="M592.493 154.947L584.908 146.688H573.69V142.1H586.154C588.041 142.1 589.466 141.606 590.427 140.582C591.389 139.558 591.852 138.076 591.852 136.135C591.852 134.193 591.353 132.782 590.356 131.829C589.359 130.876 587.935 130.417 586.118 130.417H569.809V154.947H564.609V125.264H586.118C587.828 125.264 589.323 125.511 590.677 126.005C592.03 126.499 593.169 127.24 594.095 128.158C595.021 129.111 595.733 130.24 596.232 131.582C596.73 132.923 596.98 134.405 596.98 136.064C596.98 138.535 596.446 140.617 595.342 142.311C594.273 143.97 592.742 145.17 590.783 145.912L599.793 154.947H592.493Z" fill="#263A8B"/>
<path d="M619.733 154.947C617.632 154.947 615.709 154.559 613.929 153.782C612.148 153.006 610.617 151.947 609.299 150.606C607.982 149.265 606.985 147.676 606.237 145.806C605.489 143.97 605.133 141.958 605.133 139.805C605.133 137.617 605.489 135.64 606.237 133.84C606.949 132.04 607.982 130.523 609.299 129.252C610.617 127.981 612.148 126.993 613.929 126.322C615.709 125.616 617.632 125.299 619.733 125.299H627.034C629.206 125.299 631.2 125.652 632.981 126.358C634.761 127.064 636.328 128.052 637.61 129.323C638.892 130.593 639.889 132.146 640.601 133.911C641.314 135.676 641.67 137.652 641.67 139.805C641.67 141.958 641.314 143.97 640.566 145.806C639.818 147.676 638.821 149.265 637.503 150.606C636.186 151.947 634.654 153.006 632.874 153.782C631.093 154.559 629.135 154.947 626.998 154.947H619.733ZM626.998 149.759C628.387 149.759 629.633 149.512 630.773 149.018C631.912 148.523 632.909 147.853 633.764 147.006C634.583 146.159 635.26 145.135 635.723 143.935C636.186 142.735 636.435 141.429 636.435 140.052C636.435 138.676 636.186 137.37 635.723 136.205C635.26 135.005 634.583 134.017 633.764 133.17C632.909 132.323 631.912 131.652 630.773 131.193C629.633 130.734 628.351 130.487 626.998 130.487H619.698C618.344 130.487 617.098 130.734 615.959 131.193C614.819 131.652 613.822 132.323 613.003 133.17C612.184 134.017 611.543 135.04 611.08 136.205C610.617 137.37 610.368 138.676 610.368 140.088C610.368 141.464 610.617 142.77 611.08 143.97C611.543 145.17 612.184 146.194 613.003 147.041C613.822 147.888 614.819 148.559 615.959 149.053C617.098 149.547 618.344 149.794 619.698 149.794H626.998V149.759Z" fill="#263A8B"/>
<path d="M677.28 154.947L672.793 147.464H658.62L661.077 143.264H670.265L663.606 132.146L650.002 154.947H644.02L661.255 126.534C661.54 126.005 661.896 125.616 662.324 125.299C662.751 125.016 663.249 124.84 663.819 124.84C664.389 124.84 664.888 124.981 665.279 125.299C665.671 125.581 666.027 126.005 666.348 126.534L683.619 154.947H677.28Z" fill="#263A8B"/>
<path d="M690.887 154.947V125.264H708.229C710.33 125.264 712.289 125.617 714.069 126.323C715.85 127.028 717.381 128.017 718.663 129.287C719.945 130.558 720.978 132.111 721.69 133.876C722.402 135.641 722.794 137.617 722.794 139.77C722.794 141.923 722.438 143.935 721.69 145.77C720.978 147.641 719.945 149.229 718.663 150.571C717.381 151.912 715.85 152.971 714.069 153.747C712.289 154.524 710.33 154.912 708.229 154.912H690.887V154.947ZM708.229 149.759C709.582 149.759 710.829 149.512 711.968 149.018C713.108 148.524 714.105 147.853 714.924 147.006C715.779 146.159 716.42 145.135 716.883 143.935C717.346 142.735 717.595 141.429 717.595 140.053C717.595 138.676 717.346 137.37 716.883 136.205C716.42 135.005 715.779 134.017 714.924 133.17C714.105 132.323 713.108 131.652 711.968 131.193C710.829 130.735 709.582 130.487 708.229 130.487H696.086V149.794H708.229V149.759Z" fill="#263A8B"/>
<path d="M731.232 154.947V149.759H753.667C755.056 149.759 756.16 149.406 756.908 148.7C757.656 147.994 758.047 147.041 758.047 145.876C758.047 144.606 757.656 143.653 756.908 142.982C756.16 142.347 755.056 142.029 753.667 142.029H739.922C738.533 142.029 737.251 141.817 736.111 141.394C734.972 140.97 734.01 140.37 733.227 139.629C732.443 138.888 731.838 138.006 731.41 136.947C730.983 135.923 730.77 134.794 730.77 133.558C730.77 132.358 730.983 131.264 731.375 130.241C731.767 129.217 732.372 128.335 733.155 127.593C733.939 126.852 734.9 126.287 736.076 125.864C737.215 125.44 738.533 125.229 740.028 125.229H761.537V130.417H740.028C738.818 130.417 737.892 130.735 737.215 131.37C736.538 132.005 736.218 132.888 736.218 134.052C736.218 135.182 736.538 136.064 737.215 136.7C737.892 137.335 738.818 137.653 739.957 137.653H753.667C756.73 137.653 759.045 138.359 760.611 139.77C762.178 141.182 762.997 143.335 762.997 146.229C762.997 147.5 762.819 148.63 762.428 149.688C762.036 150.747 761.466 151.665 760.683 152.441C759.899 153.218 758.938 153.818 757.798 154.242C756.623 154.665 755.27 154.912 753.703 154.912H731.232V154.947Z" fill="#263A8B"/>
<path fill-rule="evenodd" clip-rule="evenodd" d="M141.517 198.432C119.26 191.338 99.8517 176.831 81.2984 156.818H59.1484C69.1907 173.196 86.284 187.349 103.092 198.432H141.517Z" fill="black"/>
<path d="M486.943 243.681H161.816C122.857 243.681 87.5667 229.104 61.7488 205.491C61.7132 205.35 61.6064 205.279 61.4639 205.209C61.1434 204.926 60.8585 204.644 60.538 204.362C59.1492 202.879 57.7604 201.397 56.336 199.95C53.0954 196.667 50.0328 193.243 47.0415 189.785C42.5545 184.596 38.2812 179.196 34.3284 173.584C29.5565 166.736 25.1408 159.642 21.6153 152.089C17.8761 144.147 15.3478 135.641 14.2082 126.958C12.1072 111.11 15.9175 95.2626 24.3217 81.7444C26.7433 77.8619 29.6277 74.2264 32.7259 70.838C34.2216 69.2144 35.7528 67.5908 37.2485 65.9672C38.7441 64.3436 40.4891 62.9671 42.1628 61.5553C47.5044 57.0727 53.0954 52.8725 59.0068 49.0959C70.2598 41.8956 82.2607 35.9659 94.6177 30.848C98.072 29.4009 101.562 28.0244 105.087 26.7184C114.809 23.083 124.709 19.8358 134.716 16.9415C151.666 12.0354 168.938 8.047 186.28 4.69391C191.301 3.74092 196.323 2.82324 201.379 1.94084C204.834 1.34082 208.252 0.740791 211.706 0.105469C201.486 0.564313 191.123 2.64676 181.045 4.19977C168.795 6.10574 156.581 8.43525 144.509 11.153C137.03 12.8472 129.659 14.8238 122.287 16.765C120.507 17.2239 118.762 17.8592 116.981 18.318C113.598 19.2004 110.287 20.2946 106.975 21.2829C99.532 23.5418 92.1962 26.2243 84.9671 29.1538C82.2607 30.248 79.5543 31.3069 76.9547 32.6128C70.4735 35.4012 64.1347 38.4719 58.0097 41.9309C51.5641 45.5663 45.2609 49.5194 39.3495 53.9667C31.1946 60.0728 23.7519 66.9555 17.4844 74.9676C5.73281 90.0389 -0.321053 106.981 0.141889 126.111C0.248722 129.994 0.56922 133.841 1.17461 137.653C2.49221 146.018 4.84253 154.136 7.94068 162.007C12.8194 174.325 19.3362 185.761 26.7789 196.702C28.4526 199.138 30.1619 201.573 31.9781 203.938C57.5467 240.681 101.811 265.035 152.165 265.035H487.086H539.683H763.142V243.716H539.683H486.943V243.681Z" fill="#263A8B"/>
<path d="M679.242 170.089H592.423H219.825C177.769 170.089 126.881 153.112 99.9589 126.075C92.1601 117.71 85.6789 108.286 81.6905 97.4154C79.0197 90.1798 78.4499 80.7205 80.1592 73.1673C80.9427 69.6377 82.6164 66.3552 84.3257 63.1786C86.7472 58.696 89.9878 54.637 93.5133 50.9663C95.4363 48.9544 97.4661 47.0838 99.5672 45.2837C106.618 39.3187 114.524 34.4126 122.714 30.1418C125.065 28.9418 127.415 27.777 129.801 26.6475C142.193 20.8591 155.049 16.3059 168.154 12.4234C171.893 11.3292 208.893 2.64648 210.602 2.15234C208.786 2.32882 197.675 4.41127 197.426 4.48186C187.206 6.42312 176.985 8.57616 166.907 11.1527C157.862 13.4823 148.71 16.1647 139.843 19.2708C137.315 20.1531 134.786 21.0708 132.258 22.0591C127.842 23.7533 123.569 25.624 119.296 27.5299C114.488 29.683 109.788 32.0478 105.229 34.695C95.8636 40.1658 86.8541 46.4837 79.6607 54.6017C77.6664 56.8606 75.8147 59.2608 74.141 61.7668C69.3691 69.0024 66.5914 76.838 66.2709 85.5207C66.0573 91.874 67.2324 97.9801 69.3691 103.945C72.1111 111.569 76.2064 118.416 81.0495 124.875C87.4238 133.382 94.9021 140.864 102.879 147.818C106.654 151.1 110.535 154.171 114.488 157.206C120.222 162.006 126.382 166.313 132.899 170.23C153.731 182.725 178.267 190.278 204.619 191.196C206.436 191.267 208.216 191.373 210.032 191.373H592.423H679.242H762.999V170.054H679.242V170.089Z" fill="#263A8B"/>
<path d="M699.791 210.786H593.207V224.657H699.791V210.786Z" fill="black"/>
<path d="M546.951 210.786H440.367V224.657H546.951V210.786Z" fill="black"/>
<path d="M394.142 210.786H287.559V224.657H394.142V210.786Z" fill="black"/>
<path fill-rule="evenodd" clip-rule="evenodd" d="M241.336 210.786H242.191H237.989C210.889 210.786 183.255 212.339 156.44 207.645H116.484C138.777 218.374 165.271 224.657 193.796 224.657H218.866H223.068H241.336V210.786Z" fill="black"/>
</g>
<defs>
<clipPath id="clip0_3701_31462">
<rect width="763" height="265" fill="white"/>
</clipPath>
</defs>
</svg>
