<svg width="214" height="64" viewBox="0 0 214 64" fill="none" xmlns="http://www.w3.org/2000/svg">
<g clip-path="url(#clip0_886_19981)">
<path d="M64.78 1.39458C64.78 0.629809 64.1502 0 63.3854 0H58.8868C58.122 0 57.4922 0.629809 57.4922 1.39458V6.9279H64.78V1.39458Z" fill="url(#paint0_linear_886_19981)"/>
<path d="M64.78 7.64771H57.4473V10.4818H64.78V7.64771Z" fill="url(#paint1_linear_886_19981)"/>
<path d="M61.1361 28.0265H68.8738V23.9777C68.5139 19.749 65.3649 17.2748 65.3649 17.2748C64.6451 16.555 64.7351 14.3507 64.7351 14.3507V11.6515H61.1361H61.0912H57.4923V14.3507C57.4923 14.3507 57.5822 16.6 56.8625 17.2748C56.8625 17.2748 53.6684 19.749 53.3535 23.9777V28.0265H61.1361Z" fill="url(#paint2_linear_886_19981)"/>
<path d="M6.70258 2.38428H0.269531L6.20773 43.0519C8.23211 42.4221 10.2565 41.7923 12.3709 41.2075L6.70258 2.38428Z" fill="url(#paint3_linear_886_19981)" stroke="#58012B" stroke-width="0.449863" stroke-miterlimit="10"/>
<path d="M21.3238 38.6433L23.843 20.4238L26.3622 37.9235C28.0717 37.6086 29.8262 37.2937 31.5806 36.9788L31.3107 34.1896L27.7568 2.51923L20.1091 2.74416L16.8701 33.9647L16.1953 40.2178C17.8598 39.8129 19.5693 39.408 21.2788 39.0031L21.3238 38.6433Z" fill="url(#paint4_linear_886_19981)" stroke="#58012B" stroke-width="0.449863" stroke-miterlimit="10"/>
<path d="M47.0545 2.38428H40.7114L36.3027 36.259C38.3721 35.9441 40.4415 35.6742 42.5558 35.4042L47.0545 2.38428Z" fill="url(#paint5_linear_886_19981)" stroke="#58012B" stroke-width="0.449863" stroke-miterlimit="10"/>
<path d="M104.144 2.60925H97.9805L97.9355 33.6498C100.005 33.7398 102.119 33.8748 104.189 34.0097L104.144 2.60925Z" fill="url(#paint6_linear_886_19981)" stroke="#58012B" stroke-width="0.449863" stroke-miterlimit="10"/>
<path d="M81.9198 33.1999V14.9355L87.6331 33.2899C89.7474 33.3349 91.9068 33.4249 94.0661 33.4698L84.1691 2.38428L75.1719 2.33929L75.4418 33.2449C77.6011 33.1999 79.7605 33.1999 81.9198 33.1999Z" fill="url(#paint7_linear_886_19981)" stroke="#58012B" stroke-width="0.449863" stroke-miterlimit="10"/>
<path d="M117.728 35.1343H132.799V29.2411H117.728V8.50242H136.083V2.33929L110.936 2.38428V34.5045C113.14 34.6845 115.434 34.9094 117.728 35.1343Z" fill="url(#paint8_linear_886_19981)" stroke="#58012B" stroke-width="0.449863" stroke-miterlimit="10"/>
<path d="M155.382 33.8747C155.382 33.8747 154.572 31.3555 149.399 29.4661C149.399 29.4661 146.52 29.5111 143.686 38.5983C146.295 39.0482 148.904 39.498 151.468 39.9929C152.548 37.8785 153.852 35.8091 155.382 33.8747Z" fill="url(#paint9_linear_886_19981)" stroke="#58012B" stroke-width="0.449863" stroke-miterlimit="10"/>
<path d="M154.213 22.6281C152.953 24.8774 155.338 25.1923 155.338 25.1923C159.071 20.7387 162.985 16.42 162.985 16.42C158.981 11.8763 155.338 11.7864 155.338 11.7864C154.843 11.7864 153.178 17.1397 153.178 17.1397C151.964 23.1679 154.213 22.6281 154.213 22.6281Z" fill="url(#paint10_linear_886_19981)" stroke="#58012B" stroke-width="0.449863" stroke-miterlimit="10"/>
<path d="M201.223 34.0547C201.223 34.0547 203.787 32.0753 202.258 34.8644C202.258 34.8644 196.77 44.6714 195.51 51.2394C197.399 51.8692 199.244 52.4991 201.088 53.1289C200.998 52.814 200.953 52.3641 201.043 51.8692C201.043 51.8692 207.971 36.0341 213.729 31.1755C213.729 31.1755 208.151 23.5279 201.448 28.9712C201.448 28.9712 195.87 32.1652 188.852 42.0622C188.852 42.0622 186.693 44.2216 187.817 40.7126C187.817 40.7126 196.185 16.1501 210.086 5.44335C210.086 5.44335 207.701 2.47425 201.718 2.38428C201.718 2.38428 185.028 20.0189 180.35 46.6958C182.914 47.4156 185.478 48.1354 187.952 48.9001C191.461 43.2769 196.095 37.1137 201.223 34.0547Z" fill="url(#paint11_linear_886_19981)" stroke="#58012B" stroke-width="0.449863" stroke-miterlimit="10"/>
<path d="M204.102 53.8037C203.967 53.8936 203.787 53.9836 203.607 54.0736C204.147 54.2535 204.642 54.4785 205.182 54.6584C205.092 54.1186 204.822 53.3538 204.102 53.8037Z" fill="#58012B" stroke="#58012B" stroke-width="0.449863" stroke-miterlimit="10"/>
<path d="M173.242 31.4904C178.461 30.4107 174.952 36.9787 174.952 36.9787C174.952 38.9581 176.257 37.7435 176.257 37.7435C181.97 31.3554 177.966 28.1164 177.966 28.1164C172.073 21.7734 170.903 23.1679 170.903 23.1679C163.525 25.6422 163.031 32.5701 163.166 35.4942C163.211 36.124 163.345 36.7988 163.57 37.3836C164.2 38.8232 164.515 40.9825 164.65 42.782C166.045 43.0969 167.484 43.4118 168.879 43.7717C169.104 30.8156 173.242 31.4904 173.242 31.4904Z" fill="url(#paint12_linear_886_19981)" stroke="#58012B" stroke-width="0.449863" stroke-miterlimit="10"/>
<path d="M60.4608 51.2844V60.5966C60.1009 63.4307 57.2667 63.4307 57.2667 63.4307C53.7578 63.7906 53.7578 61.0015 53.7578 61.0015V41.5674C54.4776 46.5159 59.3811 48.2703 59.3811 48.2703C60.7757 49.35 60.4608 51.2844 60.4608 51.2844ZM56.502 44.5365C55.1074 42.827 55.1524 41.0275 55.1524 38.9582C55.1524 38.1034 55.1524 37.2487 55.1524 36.3939C55.1524 36.169 55.2873 35.3593 55.1524 35.2243C55.1524 35.2243 59.3811 40.5327 67.4786 38.7332C67.4786 38.7332 68.8732 45.4362 62.5301 46.4709C60.3708 46.8758 57.9415 46.3359 56.502 44.5365ZM68.9182 61.0015C68.9182 61.0015 68.9182 63.7906 65.4093 63.4307C65.4093 63.4307 62.5751 63.4307 62.2152 60.5966V51.2844C62.2152 51.2844 61.8554 49.305 63.2949 48.2703C63.2949 48.2703 68.2434 46.5159 68.9182 41.5674V61.0015Z" fill="#58012B"/>
<path d="M67.4788 38.7782C59.3812 40.5327 55.1525 35.2693 55.1525 35.2693C55.2875 35.4492 55.1525 36.259 55.1525 36.4389C55.1525 37.2937 55.1525 38.1484 55.1525 39.0032C55.1525 41.0725 55.1075 42.872 56.5021 44.5815C57.9417 46.3359 60.3709 46.9207 62.5753 46.5159C68.9183 45.4362 67.4788 38.7782 67.4788 38.7782Z" fill="#58012B"/>
<path d="M59.3811 48.2703C59.3811 48.2703 54.4326 46.5159 53.7578 41.5674V61.0015C53.7578 61.0015 53.7578 63.7906 57.2667 63.4307C57.2667 63.4307 60.1009 63.4307 60.4608 60.5966V51.2844C60.4608 51.2844 60.7757 49.35 59.3811 48.2703Z" fill="#58012B"/>
<path d="M63.2508 48.2703C61.8562 49.35 62.1711 51.2844 62.1711 51.2844V60.5966C62.531 63.4307 65.3651 63.4307 65.3651 63.4307C68.8741 63.7906 68.8741 61.0015 68.8741 61.0015V41.5674C68.1993 46.5159 63.2508 48.2703 63.2508 48.2703Z" fill="#58012B"/>
<path d="M18.2633 63.6107L21.3224 39.0032C19.6129 39.4081 17.9034 39.7679 16.2389 40.2178L14.4845 55.4232L12.4151 41.2075C10.3007 41.7923 8.23135 42.4221 6.25195 43.0519L9.26604 63.7007L18.2633 63.6107Z" fill="#58012B" stroke="#58012B" stroke-width="0.449863" stroke-miterlimit="10"/>
<path d="M26.4513 38.5533L29.5554 63.6557L38.7326 63.5657L42.5564 35.3593C40.442 35.6292 38.3727 35.8991 36.3033 36.214L33.7391 55.828L31.5797 36.9788C29.8253 37.2937 28.0708 37.6086 26.3613 37.9235L26.4513 38.5533Z" fill="#58012B" stroke="#58012B" stroke-width="0.449863" stroke-miterlimit="10"/>
<path d="M81.9194 62.9808V33.1999C79.7601 33.1999 77.6008 33.1999 75.4414 33.2449L75.7113 63.0258H81.9194V62.9808Z" fill="#58012B" stroke="#58012B" stroke-width="0.449863" stroke-miterlimit="10"/>
<path d="M97.0349 63.2508L104.278 62.9358L104.233 34.0546C102.118 33.9197 100.049 33.7847 97.9796 33.6947V45.6611L94.1108 33.5148C91.9514 33.4248 89.7921 33.3798 87.6777 33.3348L97.0349 63.2508Z" fill="#58012B" stroke="#58012B" stroke-width="0.449863" stroke-miterlimit="10"/>
<path d="M136.083 63.2508V56.9977H117.728V35.1343C115.434 34.9094 113.185 34.6845 110.936 34.5045V63.2058H136.083V63.2508Z" fill="#58012B" stroke="#58012B" stroke-width="0.449863" stroke-miterlimit="10"/>
<path d="M145.89 57.8974C145.89 57.8974 146.88 48.8102 151.469 39.9928C148.904 39.498 146.295 39.0481 143.686 38.5983C142.651 42.0172 141.617 46.6508 140.717 53.0389C140.717 53.0839 142.156 58.4372 145.89 57.8974Z" fill="#58012B" stroke="#58012B" stroke-width="0.449863" stroke-miterlimit="10"/>
<path d="M195.42 55.2882C195.42 55.2882 196.86 60.7765 205.227 55.0633C205.227 55.0633 205.227 54.8833 205.182 54.6134C204.643 54.4335 204.148 54.2085 203.608 54.0286C203.248 54.1636 202.843 54.2535 202.393 54.2085C201.853 54.1186 201.269 53.8486 201.044 53.1289C199.199 52.4991 197.355 51.8692 195.465 51.2394C195.195 52.8589 195.105 54.2535 195.42 55.2882Z" fill="#58012B" stroke="#58012B" stroke-width="0.449863" stroke-miterlimit="10"/>
<path d="M179.81 58.1223C180.215 59.157 180.62 60.7765 181.79 60.5516C181.79 60.5516 184.174 55.0633 187.998 48.9001C185.479 48.1354 182.96 47.4156 180.395 46.6958C179.945 49.35 179.586 52.0942 179.361 54.9283C179.271 55.963 179.406 57.0876 179.81 58.1223Z" fill="#58012B" stroke="#58012B" stroke-width="0.449863" stroke-miterlimit="10"/>
<path d="M154.482 50.4297C153.447 51.5993 152.638 52.9939 152.098 54.4784C151.198 56.9527 151.018 60.2817 153.447 61.9462C155.922 63.6107 159.251 63.8356 161.995 62.7109C164.739 61.5863 166.943 59.247 168.113 56.5028C169.283 53.7586 169.463 50.6546 168.878 47.7305C170.452 47.3256 172.072 46.9657 173.646 46.5608C173.601 46.021 173.556 45.4812 173.511 44.8963C171.982 44.8963 170.452 44.8963 168.878 44.8963C169.148 44.5814 168.968 44.0866 168.653 43.8167C168.338 43.5468 167.933 43.4568 167.528 43.3668C166.583 43.1869 165.639 42.9619 164.694 42.782C164.739 43.7717 164.784 44.8064 164.829 45.7961C162.085 45.7511 159.341 46.5608 157.046 48.0904C156.102 48.7652 155.247 49.5749 154.482 50.4297ZM162.355 56.6828C156.596 64.0155 156.372 59.3819 156.372 59.3819C155.427 52.1391 165.369 49.0801 165.369 49.0801C164.424 54.8383 162.355 56.6828 162.355 56.6828Z" fill="#58012B" stroke="#58012B" stroke-width="0.449863" stroke-miterlimit="10"/>
</g>
<defs>
<linearGradient id="paint0_linear_886_19981" x1="57.4452" y1="3.46615" x2="64.7584" y2="3.46615" gradientUnits="userSpaceOnUse">
<stop stop-color="#600330"/>
<stop offset="1" stop-color="#8F0D4C"/>
</linearGradient>
<linearGradient id="paint1_linear_886_19981" x1="57.4452" y1="9.0699" x2="64.7584" y2="9.0699" gradientUnits="userSpaceOnUse">
<stop stop-color="#600330"/>
<stop offset="1" stop-color="#8F0D4C"/>
</linearGradient>
<linearGradient id="paint2_linear_886_19981" x1="53.3481" y1="19.8199" x2="68.8996" y2="19.8199" gradientUnits="userSpaceOnUse">
<stop stop-color="#600330"/>
<stop offset="1" stop-color="#8F0D4C"/>
</linearGradient>
<linearGradient id="paint3_linear_886_19981" x1="0.259724" y1="22.7166" x2="12.3712" y2="22.7166" gradientUnits="userSpaceOnUse">
<stop stop-color="#600330"/>
<stop offset="1" stop-color="#8F0D4C"/>
</linearGradient>
<linearGradient id="paint4_linear_886_19981" x1="16.1952" y1="21.3555" x2="31.6214" y2="21.3555" gradientUnits="userSpaceOnUse">
<stop stop-color="#600330"/>
<stop offset="1" stop-color="#8F0D4C"/>
</linearGradient>
<linearGradient id="paint5_linear_886_19981" x1="36.3178" y1="19.3169" x2="47.0557" y2="19.3169" gradientUnits="userSpaceOnUse">
<stop stop-color="#600330"/>
<stop offset="1" stop-color="#8F0D4C"/>
</linearGradient>
<linearGradient id="paint6_linear_886_19981" x1="97.9592" y1="18.3197" x2="104.233" y2="18.3197" gradientUnits="userSpaceOnUse">
<stop stop-color="#600330"/>
<stop offset="1" stop-color="#8F0D4C"/>
</linearGradient>
<linearGradient id="paint7_linear_886_19981" x1="75.1911" y1="17.9065" x2="94.0778" y2="17.9065" gradientUnits="userSpaceOnUse">
<stop stop-color="#600330"/>
<stop offset="1" stop-color="#8F0D4C"/>
</linearGradient>
<linearGradient id="paint8_linear_886_19981" x1="110.901" y1="18.7342" x2="136.07" y2="18.7342" gradientUnits="userSpaceOnUse">
<stop stop-color="#600330"/>
<stop offset="1" stop-color="#8F0D4C"/>
</linearGradient>
<linearGradient id="paint9_linear_886_19981" x1="143.67" y1="34.7387" x2="155.36" y2="34.7387" gradientUnits="userSpaceOnUse">
<stop stop-color="#600330"/>
<stop offset="1" stop-color="#8F0D4C"/>
</linearGradient>
<linearGradient id="paint10_linear_886_19981" x1="152.825" y1="18.5085" x2="162.994" y2="18.5085" gradientUnits="userSpaceOnUse">
<stop stop-color="#600330"/>
<stop offset="1" stop-color="#8F0D4C"/>
</linearGradient>
<linearGradient id="paint11_linear_886_19981" x1="180.374" y1="27.7676" x2="213.697" y2="27.7676" gradientUnits="userSpaceOnUse">
<stop stop-color="#600330"/>
<stop offset="1" stop-color="#8F0D4C"/>
</linearGradient>
<linearGradient id="paint12_linear_886_19981" x1="163.19" y1="33.3742" x2="179.341" y2="33.3742" gradientUnits="userSpaceOnUse">
<stop stop-color="#600330"/>
<stop offset="1" stop-color="#8F0D4C"/>
</linearGradient>
<clipPath id="clip0_886_19981">
<rect width="214" height="63.9256" fill="white"/>
</clipPath>
</defs>
</svg>
